<?xml version="1.0" encoding="UTF-8" standalone="no"?>
<!-- Created with Inkscape (http://www.inkscape.org/) -->
<svg width="282.49588mm" height="120.81813mm" viewBox="0 0 282.49588 120.81813" version="1.1" id="svg5" xml:space="preserve" xmlns:xlink="http://www.w3.org/1999/xlink" xmlns="http://www.w3.org/2000/svg" xmlns:svg="http://www.w3.org/2000/svg"><defs id="defs2"><path id="SVGID_1_" d="m 2666.3,324.7 h -97.5 c -14.2,-68.1 -57.6,-113.8 -127.6,-113.8 -38.1,0 -70,14 -93.1,40.1 -31.9,35.4 -38.1,75.6 -38.1,207.1 0,131.5 6.2,171.6 38.1,207.1 23,26.1 54.9,40.1 93.1,40.1 70,0 113.4,-45.7 127.6,-113.8 h 97.5 c -22.2,131.5 -109.9,204.3 -225.1,204.3 -69.1,0 -122.3,-24.3 -163.1,-67.2 -61.2,-65.3 -63.8,-131.5 -63.8,-270.5 0,-139 2.7,-205.2 63.8,-270.5 40.8,-42.9 93.9,-67.2 163.1,-67.2 116.1,0 202.9,72.7 225.1,204.3 z M 3193.6,126 v 440.3 c 0,137.1 -98.4,229.5 -226.9,229.5 -128.5,0 -226,-92.3 -226,-229.5 V 126 h 95.7 v 435.6 c 0,88.6 51.4,143.6 130.3,143.6 78.9,0 131.2,-55 131.2,-143.6 V 126 Z m 208.3,0 v 573.7 h 304 v 90.5 H 3306.2 V 126 Z m 669.9,0 v 90.5 h -173.7 v 573.7 h -95.7 V 216.5 H 3628.7 V 126 Z m 525.6,0 v 440.3 c 0,137.1 -98.4,229.5 -226.9,229.5 -128.5,0 -226,-92.3 -226,-229.5 V 126 h 95.7 v 435.6 c 0,88.6 51.4,143.6 130.3,143.6 78.9,0 131.2,-55 131.2,-143.6 V 126 Z m 111.7,0 h 244.6 c 119.6,0 195.9,81.2 195.9,194 0,95.1 -54.9,155.8 -125.8,176.3 L 5169,790.1 H 5057.3 L 4924.4,510.3 h -119.6 v 279.8 h -95.7 z m 95.7,90.5 v 208 h 141.8 c 63.8,0 107.2,-38.2 107.2,-103.5 0,-65.3 -43.4,-104.5 -107.2,-104.5 z m 724,-90.5 231.3,664.1 h -101.9 l -43.4,-133.4 h -249 l -43.4,133.4 H 5220.5 L 5451.7,126 Z m -39,150.2 -96.6,294.8 h 194.1 z m 429,-150.2 v 573.7 h 304 v 90.5 H 5823.1 V 126 Z"/><path id="SVGID_00000004517832585976790420000009681570420941840773_" d="m 1743.9,496.1 c -170.7,76.6 -153.2,158.8 -138.1,189.8 3.4,6.9 6.2,11.1 6.5,11.5 171.9,264.6 512.4,303.7 513.5,302.7 C 1954.1,844.5 1778.4,570.3 1837.5,460 c -30.2,11.7 -61.6,23.6 -93.6,36.1"/><path id="SVGID_00000026122884953094692770000004664168062016065937_" d="m 1590.6,11.3 c 139.6,-3.2 254.4,116.1 243.9,248 -2.7,23.5 -10.5,47.1 -22,70.6 -27.3,55.2 -75.9,109.5 -130.3,158.4 -113.6,99.6 -93,167.6 -76.5,197.6 -15,-30.8 -32.6,-113.2 138.1,-189.8 228.1,-89.2 423.4,-148.6 360.6,-305.3 C 2032.2,30.4 1851.7,0 1725.2,0 1647.8,0 1590.6,11.3 1590.6,11.3"/><path id="SVGID_00000043459113457493937310000015151287445425353890_" d="m 1590.6,11.3 c -86.9,17.3 -157,53.4 -213.5,101.4 -16.3,13.8 -31.4,28.6 -45.5,44.2 -52.3,57.9 -106.4,145.5 -137.6,228.2 -52.4,138.7 -69.7,269 -147.4,342.6 -58,54.1 13.4,77.6 60.3,56.5 55.5,-20.7 107,-63.2 176.8,-168.5 59.2,-91 142.8,-258.1 304.8,-330.7 137.7,-62.5 250.5,-33.8 224,45 11.6,-23.5 19.4,-47.1 22,-70.6 10.3,-130.1 -101.3,-248 -238.5,-248 -1.7,-0.1 -3.5,-0.1 -5.4,-0.1"/><path id="SVGID_00000143603414097528338740000010794203758393663144_" d="m 0,126.1 v 0 145.5 H 163.2 V 790.2 H 326.5 V 271.7 H 489.7 V 126.1 Z m 948.8,0 -110,371.2 L 726.9,126.1 H 558 l 219.2,664.1 h 121.2 l 220.2,-664.1 z"/><linearGradient id="linearGradient4127" gradientUnits="userSpaceOnUse" x1="3888.1226" y1="2095.1104" x2="3942.4045" y2="2095.1104" gradientTransform="matrix(-3.8186,-10.4916,-10.4916,3.8186,38796.617,33849.328)">
		<stop offset="0" style="stop-color:#82C5C6" id="stop1974-9"/>
		<stop offset="0.2978" style="stop-color:#60B7A2" id="stop1976-3"/>
		<stop offset="0.6461" style="stop-color:#008B96" id="stop1978-7"/>
		<stop offset="1" style="stop-color:#2D4A74" id="stop1980-0"/>
	</linearGradient><clipPath id="SVGID_00000143604327886209795450000015356285279467233666_-0">
		<use xlink:href="#SVGID_00000004517832585976790420000009681570420941840773_" style="overflow:visible" id="use1971-3"/>
	</clipPath><path id="path2076-1" d="m 1743.9,496.1 c -170.7,76.6 -153.2,158.8 -138.1,189.8 3.4,6.9 6.2,11.1 6.5,11.5 171.9,264.6 512.4,303.7 513.5,302.7 C 1954.1,844.5 1778.4,570.3 1837.5,460 c -30.2,11.7 -61.6,23.6 -93.6,36.1"/><defs id="defs1969-6">
		<path id="path4132" d="m 1743.9,496.1 c -170.7,76.6 -153.2,158.8 -138.1,189.8 3.4,6.9 6.2,11.1 6.5,11.5 171.9,264.6 512.4,303.7 513.5,302.7 C 1954.1,844.5 1778.4,570.3 1837.5,460 c -30.2,11.7 -61.6,23.6 -93.6,36.1"/>
	</defs><clipPath id="clipPath4065">
		<use xlink:href="#SVGID_00000004517832585976790420000009681570420941840773_" style="overflow:visible" id="use4063"/>
	</clipPath><defs id="defs1969">
		<path id="path2076" d="m 1743.9,496.1 c -170.7,76.6 -153.2,158.8 -138.1,189.8 3.4,6.9 6.2,11.1 6.5,11.5 171.9,264.6 512.4,303.7 513.5,302.7 C 1954.1,844.5 1778.4,570.3 1837.5,460 c -30.2,11.7 -61.6,23.6 -93.6,36.1"/>
	</defs><defs id="defs1988">
		<path id="path2088" d="m 1590.6,11.3 c 139.6,-3.2 254.4,116.1 243.9,248 -2.7,23.5 -10.5,47.1 -22,70.6 -27.3,55.2 -75.9,109.5 -130.3,158.4 -113.6,99.6 -93,167.6 -76.5,197.6 -15,-30.8 -32.6,-113.2 138.1,-189.8 228.1,-89.2 423.4,-148.6 360.6,-305.3 C 2032.2,30.4 1851.7,0 1725.2,0 1647.8,0 1590.6,11.3 1590.6,11.3"/>
	</defs><linearGradient id="SVGID_00000140002760787686440890000001468837285754511492_" gradientUnits="userSpaceOnUse" x1="3651.9839" y1="1768.3972" x2="3706.2659" y2="1768.3972" gradientTransform="matrix(4.026,11.0614,11.0614,-4.026,-32534.812,-33315.305)">
		<stop offset="0" style="stop-color:#FCE537" id="stop1993"/>
		<stop offset="5.615230e-03" style="stop-color:#FCE537" id="stop1995"/>
		<stop offset="0.2528" style="stop-color:#A8C647" id="stop1997"/>
		<stop offset="0.3876" style="stop-color:#78B851" id="stop1999"/>
		<stop offset="0.5674" style="stop-color:#009D51" id="stop2001"/>
		<stop offset="1" style="stop-color:#04653D" id="stop2003"/>
	</linearGradient><defs id="defs2032">
		<path id="path2115" d="m 0,126.1 v 0 145.5 H 163.2 V 790.2 H 326.5 V 271.7 H 489.7 V 126.1 Z m 948.8,0 -110,371.2 L 726.9,126.1 H 558 l 219.2,664.1 h 121.2 l 220.2,-664.1 z"/>
	</defs><linearGradient id="SVGID_00000079464415199263706950000000266917585612412074_" gradientUnits="userSpaceOnUse" x1="3937.0645" y1="2018.1841" x2="3991.3464" y2="2018.1841" gradientTransform="matrix(-14.393,-14.393,-14.393,14.393,86608.937,28412.285)">
		<stop offset="0" style="stop-color:#929497" id="stop2037"/>
		<stop offset="0.25" style="stop-color:#C5C7C9" id="stop2039"/>
		<stop offset="0.5" style="stop-color:#DFE0E1" id="stop2041"/>
		<stop offset="0.75" style="stop-color:#C5C7C9" id="stop2043"/>
		<stop offset="1" style="stop-color:#929497" id="stop2045"/>
	</linearGradient><defs id="defs2011">
		<path id="path2102" d="m 1590.6,11.3 c -86.9,17.3 -157,53.4 -213.5,101.4 -16.3,13.8 -31.4,28.6 -45.5,44.2 -52.3,57.9 -106.4,145.5 -137.6,228.2 -52.4,138.7 -69.7,269 -147.4,342.6 -58,54.1 13.4,77.6 60.3,56.5 55.5,-20.7 107,-63.2 176.8,-168.5 59.2,-91 142.8,-258.1 304.8,-330.7 137.7,-62.5 250.5,-33.8 224,45 11.6,-23.5 19.4,-47.1 22,-70.6 10.3,-130.1 -101.3,-248 -238.5,-248 -1.7,-0.1 -3.5,-0.1 -5.4,-0.1"/>
	</defs><linearGradient id="SVGID_00000009583803029614325610000014010871864281026221_" gradientUnits="userSpaceOnUse" x1="3714.1589" y1="2049.6196" x2="3768.4409" y2="2049.6196" gradientTransform="matrix(13.1922,-13.1922,-13.1922,-13.1922,-20920.435,76823.547)">
		<stop offset="0" style="stop-color:#9ACED8" id="stop2016"/>
		<stop offset="0.191" style="stop-color:#93C9C2" id="stop2018"/>
		<stop offset="0.4944" style="stop-color:#65BBB1" id="stop2020"/>
		<stop offset="0.7303" style="stop-color:#00A474" id="stop2022"/>
		<stop offset="1" style="stop-color:#006971" id="stop2024"/>
	</linearGradient><path id="path801" d="m 1743.9,496.1 c -170.7,76.6 -153.2,158.8 -138.1,189.8 3.4,6.9 6.2,11.1 6.5,11.5 171.9,264.6 512.4,303.7 513.5,302.7 C 1954.1,844.5 1778.4,570.3 1837.5,460 c -30.2,11.7 -61.6,23.6 -93.6,36.1"/><path id="path803" d="m 1743.9,496.1 c -170.7,76.6 -153.2,158.8 -138.1,189.8 3.4,6.9 6.2,11.1 6.5,11.5 171.9,264.6 512.4,303.7 513.5,302.7 C 1954.1,844.5 1778.4,570.3 1837.5,460 c -30.2,11.7 -61.6,23.6 -93.6,36.1"/><path id="path805" d="m 1590.6,11.3 c 139.6,-3.2 254.4,116.1 243.9,248 -2.7,23.5 -10.5,47.1 -22,70.6 -27.3,55.2 -75.9,109.5 -130.3,158.4 -113.6,99.6 -93,167.6 -76.5,197.6 -15,-30.8 -32.6,-113.2 138.1,-189.8 228.1,-89.2 423.4,-148.6 360.6,-305.3 C 2032.2,30.4 1851.7,0 1725.2,0 1647.8,0 1590.6,11.3 1590.6,11.3"/><path id="path807" d="m 0,126.1 v 0 145.5 H 163.2 V 790.2 H 326.5 V 271.7 H 489.7 V 126.1 Z m 948.8,0 -110,371.2 L 726.9,126.1 H 558 l 219.2,664.1 h 121.2 l 220.2,-664.1 z"/><path id="path809" d="m 1590.6,11.3 c -86.9,17.3 -157,53.4 -213.5,101.4 -16.3,13.8 -31.4,28.6 -45.5,44.2 -52.3,57.9 -106.4,145.5 -137.6,228.2 -52.4,138.7 -69.7,269 -147.4,342.6 -58,54.1 13.4,77.6 60.3,56.5 55.5,-20.7 107,-63.2 176.8,-168.5 59.2,-91 142.8,-258.1 304.8,-330.7 137.7,-62.5 250.5,-33.8 224,45 11.6,-23.5 19.4,-47.1 22,-70.6 10.3,-130.1 -101.3,-248 -238.5,-248 -1.7,-0.1 -3.5,-0.1 -5.4,-0.1"/><path id="SVGID_1_-0" d="m 2666.3,324.7 h -97.5 c -14.2,-68.1 -57.6,-113.8 -127.6,-113.8 -38.1,0 -70,14 -93.1,40.1 -31.9,35.4 -38.1,75.6 -38.1,207.1 0,131.5 6.2,171.6 38.1,207.1 23,26.1 54.9,40.1 93.1,40.1 70,0 113.4,-45.7 127.6,-113.8 h 97.5 c -22.2,131.5 -109.9,204.3 -225.1,204.3 -69.1,0 -122.3,-24.3 -163.1,-67.2 -61.2,-65.3 -63.8,-131.5 -63.8,-270.5 0,-139 2.7,-205.2 63.8,-270.5 40.8,-42.9 93.9,-67.2 163.1,-67.2 116.1,0 202.9,72.7 225.1,204.3 z M 3193.6,126 v 440.3 c 0,137.1 -98.4,229.5 -226.9,229.5 -128.5,0 -226,-92.3 -226,-229.5 V 126 h 95.7 v 435.6 c 0,88.6 51.4,143.6 130.3,143.6 78.9,0 131.2,-55 131.2,-143.6 V 126 Z m 208.3,0 v 573.7 h 304 v 90.5 H 3306.2 V 126 Z m 669.9,0 v 90.5 h -173.7 v 573.7 h -95.7 V 216.5 H 3628.7 V 126 Z m 525.6,0 v 440.3 c 0,137.1 -98.4,229.5 -226.9,229.5 -128.5,0 -226,-92.3 -226,-229.5 V 126 h 95.7 v 435.6 c 0,88.6 51.4,143.6 130.3,143.6 78.9,0 131.2,-55 131.2,-143.6 V 126 Z m 111.7,0 h 244.6 c 119.6,0 195.9,81.2 195.9,194 0,95.1 -54.9,155.8 -125.8,176.3 L 5169,790.1 H 5057.3 L 4924.4,510.3 h -119.6 v 279.8 h -95.7 z m 95.7,90.5 v 208 h 141.8 c 63.8,0 107.2,-38.2 107.2,-103.5 0,-65.3 -43.4,-104.5 -107.2,-104.5 z m 724,-90.5 231.3,664.1 h -101.9 l -43.4,-133.4 h -249 l -43.4,133.4 H 5220.5 L 5451.7,126 Z m -39,150.2 -96.6,294.8 h 194.1 z m 429,-150.2 v 573.7 h 304 v 90.5 H 5823.1 V 126 Z"/><path id="SVGID_00000004517832585976790420000009681570420941840773_-8" d="m 1743.9,496.1 c -170.7,76.6 -153.2,158.8 -138.1,189.8 3.4,6.9 6.2,11.1 6.5,11.5 171.9,264.6 512.4,303.7 513.5,302.7 C 1954.1,844.5 1778.4,570.3 1837.5,460 c -30.2,11.7 -61.6,23.6 -93.6,36.1"/><path id="SVGID_00000026122884953094692770000004664168062016065937_-0" d="m 1590.6,11.3 c 139.6,-3.2 254.4,116.1 243.9,248 -2.7,23.5 -10.5,47.1 -22,70.6 -27.3,55.2 -75.9,109.5 -130.3,158.4 -113.6,99.6 -93,167.6 -76.5,197.6 -15,-30.8 -32.6,-113.2 138.1,-189.8 228.1,-89.2 423.4,-148.6 360.6,-305.3 C 2032.2,30.4 1851.7,0 1725.2,0 1647.8,0 1590.6,11.3 1590.6,11.3"/><path id="SVGID_00000043459113457493937310000015151287445425353890_-6" d="m 1590.6,11.3 c -86.9,17.3 -157,53.4 -213.5,101.4 -16.3,13.8 -31.4,28.6 -45.5,44.2 -52.3,57.9 -106.4,145.5 -137.6,228.2 -52.4,138.7 -69.7,269 -147.4,342.6 -58,54.1 13.4,77.6 60.3,56.5 55.5,-20.7 107,-63.2 176.8,-168.5 59.2,-91 142.8,-258.1 304.8,-330.7 137.7,-62.5 250.5,-33.8 224,45 11.6,-23.5 19.4,-47.1 22,-70.6 10.3,-130.1 -101.3,-248 -238.5,-248 -1.7,-0.1 -3.5,-0.1 -5.4,-0.1"/><path id="SVGID_00000143603414097528338740000010794203758393663144_-4" d="m 0,126.1 v 0 145.5 H 163.2 V 790.2 H 326.5 V 271.7 H 489.7 V 126.1 Z m 948.8,0 -110,371.2 L 726.9,126.1 H 558 l 219.2,664.1 h 121.2 l 220.2,-664.1 z"/><clipPath id="SVGID_00000143604327886209795450000015356285279467233666_-0-0">
		<use xlink:href="#SVGID_00000004517832585976790420000009681570420941840773_-8" style="overflow:visible" id="use1971-3-1"/>
	</clipPath><path id="path2076-1-9" d="m 1743.9,496.1 c -170.7,76.6 -153.2,158.8 -138.1,189.8 3.4,6.9 6.2,11.1 6.5,11.5 171.9,264.6 512.4,303.7 513.5,302.7 C 1954.1,844.5 1778.4,570.3 1837.5,460 c -30.2,11.7 -61.6,23.6 -93.6,36.1"/><defs id="defs1969-6-1">
		<path id="path4132-3" d="m 1743.9,496.1 c -170.7,76.6 -153.2,158.8 -138.1,189.8 3.4,6.9 6.2,11.1 6.5,11.5 171.9,264.6 512.4,303.7 513.5,302.7 C 1954.1,844.5 1778.4,570.3 1837.5,460 c -30.2,11.7 -61.6,23.6 -93.6,36.1"/>
	</defs><clipPath id="clipPath4065-1">
		<use xlink:href="#SVGID_00000004517832585976790420000009681570420941840773_-8" style="overflow:visible" id="use4063-1"/>
	</clipPath><defs id="defs1969-7">
		<path id="path2076-6" d="m 1743.9,496.1 c -170.7,76.6 -153.2,158.8 -138.1,189.8 3.4,6.9 6.2,11.1 6.5,11.5 171.9,264.6 512.4,303.7 513.5,302.7 C 1954.1,844.5 1778.4,570.3 1837.5,460 c -30.2,11.7 -61.6,23.6 -93.6,36.1"/>
	</defs><defs id="defs1988-0">
		<path id="path2088-1" d="m 1590.6,11.3 c 139.6,-3.2 254.4,116.1 243.9,248 -2.7,23.5 -10.5,47.1 -22,70.6 -27.3,55.2 -75.9,109.5 -130.3,158.4 -113.6,99.6 -93,167.6 -76.5,197.6 -15,-30.8 -32.6,-113.2 138.1,-189.8 228.1,-89.2 423.4,-148.6 360.6,-305.3 C 2032.2,30.4 1851.7,0 1725.2,0 1647.8,0 1590.6,11.3 1590.6,11.3"/>
	</defs><defs id="defs2032-8">
		<path id="path2115-8" d="m 0,126.1 v 0 145.5 H 163.2 V 790.2 H 326.5 V 271.7 H 489.7 V 126.1 Z m 948.8,0 -110,371.2 L 726.9,126.1 H 558 l 219.2,664.1 h 121.2 l 220.2,-664.1 z"/>
	</defs><defs id="defs2011-3">
		<path id="path2102-0" d="m 1590.6,11.3 c -86.9,17.3 -157,53.4 -213.5,101.4 -16.3,13.8 -31.4,28.6 -45.5,44.2 -52.3,57.9 -106.4,145.5 -137.6,228.2 -52.4,138.7 -69.7,269 -147.4,342.6 -58,54.1 13.4,77.6 60.3,56.5 55.5,-20.7 107,-63.2 176.8,-168.5 59.2,-91 142.8,-258.1 304.8,-330.7 137.7,-62.5 250.5,-33.8 224,45 11.6,-23.5 19.4,-47.1 22,-70.6 10.3,-130.1 -101.3,-248 -238.5,-248 -1.7,-0.1 -3.5,-0.1 -5.4,-0.1"/>
	</defs><path id="path801-8" d="m 1743.9,496.1 c -170.7,76.6 -153.2,158.8 -138.1,189.8 3.4,6.9 6.2,11.1 6.5,11.5 171.9,264.6 512.4,303.7 513.5,302.7 C 1954.1,844.5 1778.4,570.3 1837.5,460 c -30.2,11.7 -61.6,23.6 -93.6,36.1"/><path id="path803-9" d="m 1743.9,496.1 c -170.7,76.6 -153.2,158.8 -138.1,189.8 3.4,6.9 6.2,11.1 6.5,11.5 171.9,264.6 512.4,303.7 513.5,302.7 C 1954.1,844.5 1778.4,570.3 1837.5,460 c -30.2,11.7 -61.6,23.6 -93.6,36.1"/><path id="path805-3" d="m 1590.6,11.3 c 139.6,-3.2 254.4,116.1 243.9,248 -2.7,23.5 -10.5,47.1 -22,70.6 -27.3,55.2 -75.9,109.5 -130.3,158.4 -113.6,99.6 -93,167.6 -76.5,197.6 -15,-30.8 -32.6,-113.2 138.1,-189.8 228.1,-89.2 423.4,-148.6 360.6,-305.3 C 2032.2,30.4 1851.7,0 1725.2,0 1647.8,0 1590.6,11.3 1590.6,11.3"/><path id="path807-0" d="m 0,126.1 v 0 145.5 H 163.2 V 790.2 H 326.5 V 271.7 H 489.7 V 126.1 Z m 948.8,0 -110,371.2 L 726.9,126.1 H 558 l 219.2,664.1 h 121.2 l 220.2,-664.1 z"/><path id="path809-3" d="m 1590.6,11.3 c -86.9,17.3 -157,53.4 -213.5,101.4 -16.3,13.8 -31.4,28.6 -45.5,44.2 -52.3,57.9 -106.4,145.5 -137.6,228.2 -52.4,138.7 -69.7,269 -147.4,342.6 -58,54.1 13.4,77.6 60.3,56.5 55.5,-20.7 107,-63.2 176.8,-168.5 59.2,-91 142.8,-258.1 304.8,-330.7 137.7,-62.5 250.5,-33.8 224,45 11.6,-23.5 19.4,-47.1 22,-70.6 10.3,-130.1 -101.3,-248 -238.5,-248 -1.7,-0.1 -3.5,-0.1 -5.4,-0.1"/><path id="path7700" d="m 1743.9,496.1 c -170.7,76.6 -153.2,158.8 -138.1,189.8 3.4,6.9 6.2,11.1 6.5,11.5 171.9,264.6 512.4,303.7 513.5,302.7 C 1954.1,844.5 1778.4,570.3 1837.5,460 c -30.2,11.7 -61.6,23.6 -93.6,36.1"/><path id="path7702" d="m 1743.9,496.1 c -170.7,76.6 -153.2,158.8 -138.1,189.8 3.4,6.9 6.2,11.1 6.5,11.5 171.9,264.6 512.4,303.7 513.5,302.7 C 1954.1,844.5 1778.4,570.3 1837.5,460 c -30.2,11.7 -61.6,23.6 -93.6,36.1"/><path id="path7704" d="m 1590.6,11.3 c 139.6,-3.2 254.4,116.1 243.9,248 -2.7,23.5 -10.5,47.1 -22,70.6 -27.3,55.2 -75.9,109.5 -130.3,158.4 -113.6,99.6 -93,167.6 -76.5,197.6 -15,-30.8 -32.6,-113.2 138.1,-189.8 228.1,-89.2 423.4,-148.6 360.6,-305.3 C 2032.2,30.4 1851.7,0 1725.2,0 1647.8,0 1590.6,11.3 1590.6,11.3"/><path id="path7706" d="m 0,126.1 v 0 145.5 H 163.2 V 790.2 H 326.5 V 271.7 H 489.7 V 126.1 Z m 948.8,0 -110,371.2 L 726.9,126.1 H 558 l 219.2,664.1 h 121.2 l 220.2,-664.1 z"/><path id="path7708" d="m 1590.6,11.3 c -86.9,17.3 -157,53.4 -213.5,101.4 -16.3,13.8 -31.4,28.6 -45.5,44.2 -52.3,57.9 -106.4,145.5 -137.6,228.2 -52.4,138.7 -69.7,269 -147.4,342.6 -58,54.1 13.4,77.6 60.3,56.5 55.5,-20.7 107,-63.2 176.8,-168.5 59.2,-91 142.8,-258.1 304.8,-330.7 137.7,-62.5 250.5,-33.8 224,45 11.6,-23.5 19.4,-47.1 22,-70.6 10.3,-130.1 -101.3,-248 -238.5,-248 -1.7,-0.1 -3.5,-0.1 -5.4,-0.1"/><path id="SVGID_1_-7" d="m 2666.3,324.7 h -97.5 c -14.2,-68.1 -57.6,-113.8 -127.6,-113.8 -38.1,0 -70,14 -93.1,40.1 -31.9,35.4 -38.1,75.6 -38.1,207.1 0,131.5 6.2,171.6 38.1,207.1 23,26.1 54.9,40.1 93.1,40.1 70,0 113.4,-45.7 127.6,-113.8 h 97.5 c -22.2,131.5 -109.9,204.3 -225.1,204.3 -69.1,0 -122.3,-24.3 -163.1,-67.2 -61.2,-65.3 -63.8,-131.5 -63.8,-270.5 0,-139 2.7,-205.2 63.8,-270.5 40.8,-42.9 93.9,-67.2 163.1,-67.2 116.1,0 202.9,72.7 225.1,204.3 z M 3193.6,126 v 440.3 c 0,137.1 -98.4,229.5 -226.9,229.5 -128.5,0 -226,-92.3 -226,-229.5 V 126 h 95.7 v 435.6 c 0,88.6 51.4,143.6 130.3,143.6 78.9,0 131.2,-55 131.2,-143.6 V 126 Z m 208.3,0 v 573.7 h 304 v 90.5 H 3306.2 V 126 Z m 669.9,0 v 90.5 h -173.7 v 573.7 h -95.7 V 216.5 H 3628.7 V 126 Z m 525.6,0 v 440.3 c 0,137.1 -98.4,229.5 -226.9,229.5 -128.5,0 -226,-92.3 -226,-229.5 V 126 h 95.7 v 435.6 c 0,88.6 51.4,143.6 130.3,143.6 78.9,0 131.2,-55 131.2,-143.6 V 126 Z m 111.7,0 h 244.6 c 119.6,0 195.9,81.2 195.9,194 0,95.1 -54.9,155.8 -125.8,176.3 L 5169,790.1 H 5057.3 L 4924.4,510.3 h -119.6 v 279.8 h -95.7 z m 95.7,90.5 v 208 h 141.8 c 63.8,0 107.2,-38.2 107.2,-103.5 0,-65.3 -43.4,-104.5 -107.2,-104.5 z m 724,-90.5 231.3,664.1 h -101.9 l -43.4,-133.4 h -249 l -43.4,133.4 H 5220.5 L 5451.7,126 Z m -39,150.2 -96.6,294.8 h 194.1 z m 429,-150.2 v 573.7 h 304 v 90.5 H 5823.1 V 126 Z"/><path id="SVGID_00000004517832585976790420000009681570420941840773_-9" d="m 1743.9,496.1 c -170.7,76.6 -153.2,158.8 -138.1,189.8 3.4,6.9 6.2,11.1 6.5,11.5 171.9,264.6 512.4,303.7 513.5,302.7 C 1954.1,844.5 1778.4,570.3 1837.5,460 c -30.2,11.7 -61.6,23.6 -93.6,36.1"/><path id="SVGID_00000026122884953094692770000004664168062016065937_-3" d="m 1590.6,11.3 c 139.6,-3.2 254.4,116.1 243.9,248 -2.7,23.5 -10.5,47.1 -22,70.6 -27.3,55.2 -75.9,109.5 -130.3,158.4 -113.6,99.6 -93,167.6 -76.5,197.6 -15,-30.8 -32.6,-113.2 138.1,-189.8 228.1,-89.2 423.4,-148.6 360.6,-305.3 C 2032.2,30.4 1851.7,0 1725.2,0 1647.8,0 1590.6,11.3 1590.6,11.3"/><path id="SVGID_00000043459113457493937310000015151287445425353890_-0" d="m 1590.6,11.3 c -86.9,17.3 -157,53.4 -213.5,101.4 -16.3,13.8 -31.4,28.6 -45.5,44.2 -52.3,57.9 -106.4,145.5 -137.6,228.2 -52.4,138.7 -69.7,269 -147.4,342.6 -58,54.1 13.4,77.6 60.3,56.5 55.5,-20.7 107,-63.2 176.8,-168.5 59.2,-91 142.8,-258.1 304.8,-330.7 137.7,-62.5 250.5,-33.8 224,45 11.6,-23.5 19.4,-47.1 22,-70.6 10.3,-130.1 -101.3,-248 -238.5,-248 -1.7,-0.1 -3.5,-0.1 -5.4,-0.1"/><path id="SVGID_00000143603414097528338740000010794203758393663144_-0" d="m 0,126.1 v 0 145.5 H 163.2 V 790.2 H 326.5 V 271.7 H 489.7 V 126.1 Z m 948.8,0 -110,371.2 L 726.9,126.1 H 558 l 219.2,664.1 h 121.2 l 220.2,-664.1 z"/><clipPath id="SVGID_00000143604327886209795450000015356285279467233666_-0-9">
		<use xlink:href="#SVGID_00000004517832585976790420000009681570420941840773_-9" style="overflow:visible" id="use1971-3-8"/>
	</clipPath><path id="path2076-1-6" d="m 1743.9,496.1 c -170.7,76.6 -153.2,158.8 -138.1,189.8 3.4,6.9 6.2,11.1 6.5,11.5 171.9,264.6 512.4,303.7 513.5,302.7 C 1954.1,844.5 1778.4,570.3 1837.5,460 c -30.2,11.7 -61.6,23.6 -93.6,36.1"/><defs id="defs1969-6-8">
		<path id="path4132-5" d="m 1743.9,496.1 c -170.7,76.6 -153.2,158.8 -138.1,189.8 3.4,6.9 6.2,11.1 6.5,11.5 171.9,264.6 512.4,303.7 513.5,302.7 C 1954.1,844.5 1778.4,570.3 1837.5,460 c -30.2,11.7 -61.6,23.6 -93.6,36.1"/>
	</defs><clipPath id="clipPath4065-6">
		<use xlink:href="#SVGID_00000004517832585976790420000009681570420941840773_-9" style="overflow:visible" id="use4063-5"/>
	</clipPath><defs id="defs1969-3">
		<path id="path2076-7" d="m 1743.9,496.1 c -170.7,76.6 -153.2,158.8 -138.1,189.8 3.4,6.9 6.2,11.1 6.5,11.5 171.9,264.6 512.4,303.7 513.5,302.7 C 1954.1,844.5 1778.4,570.3 1837.5,460 c -30.2,11.7 -61.6,23.6 -93.6,36.1"/>
	</defs><defs id="defs1988-7">
		<path id="path2088-7" d="m 1590.6,11.3 c 139.6,-3.2 254.4,116.1 243.9,248 -2.7,23.5 -10.5,47.1 -22,70.6 -27.3,55.2 -75.9,109.5 -130.3,158.4 -113.6,99.6 -93,167.6 -76.5,197.6 -15,-30.8 -32.6,-113.2 138.1,-189.8 228.1,-89.2 423.4,-148.6 360.6,-305.3 C 2032.2,30.4 1851.7,0 1725.2,0 1647.8,0 1590.6,11.3 1590.6,11.3"/>
	</defs><defs id="defs2032-1">
		<path id="path2115-0" d="m 0,126.1 v 0 145.5 H 163.2 V 790.2 H 326.5 V 271.7 H 489.7 V 126.1 Z m 948.8,0 -110,371.2 L 726.9,126.1 H 558 l 219.2,664.1 h 121.2 l 220.2,-664.1 z"/>
	</defs><defs id="defs2011-1">
		<path id="path2102-05" d="m 1590.6,11.3 c -86.9,17.3 -157,53.4 -213.5,101.4 -16.3,13.8 -31.4,28.6 -45.5,44.2 -52.3,57.9 -106.4,145.5 -137.6,228.2 -52.4,138.7 -69.7,269 -147.4,342.6 -58,54.1 13.4,77.6 60.3,56.5 55.5,-20.7 107,-63.2 176.8,-168.5 59.2,-91 142.8,-258.1 304.8,-330.7 137.7,-62.5 250.5,-33.8 224,45 11.6,-23.5 19.4,-47.1 22,-70.6 10.3,-130.1 -101.3,-248 -238.5,-248 -1.7,-0.1 -3.5,-0.1 -5.4,-0.1"/>
	</defs><path id="path801-2" d="m 1743.9,496.1 c -170.7,76.6 -153.2,158.8 -138.1,189.8 3.4,6.9 6.2,11.1 6.5,11.5 171.9,264.6 512.4,303.7 513.5,302.7 C 1954.1,844.5 1778.4,570.3 1837.5,460 c -30.2,11.7 -61.6,23.6 -93.6,36.1"/><path id="path803-96" d="m 1743.9,496.1 c -170.7,76.6 -153.2,158.8 -138.1,189.8 3.4,6.9 6.2,11.1 6.5,11.5 171.9,264.6 512.4,303.7 513.5,302.7 C 1954.1,844.5 1778.4,570.3 1837.5,460 c -30.2,11.7 -61.6,23.6 -93.6,36.1"/><path id="path805-35" d="m 1590.6,11.3 c 139.6,-3.2 254.4,116.1 243.9,248 -2.7,23.5 -10.5,47.1 -22,70.6 -27.3,55.2 -75.9,109.5 -130.3,158.4 -113.6,99.6 -93,167.6 -76.5,197.6 -15,-30.8 -32.6,-113.2 138.1,-189.8 228.1,-89.2 423.4,-148.6 360.6,-305.3 C 2032.2,30.4 1851.7,0 1725.2,0 1647.8,0 1590.6,11.3 1590.6,11.3"/><path id="path807-2" d="m 0,126.1 v 0 145.5 H 163.2 V 790.2 H 326.5 V 271.7 H 489.7 V 126.1 Z m 948.8,0 -110,371.2 L 726.9,126.1 H 558 l 219.2,664.1 h 121.2 l 220.2,-664.1 z"/><path id="path809-1" d="m 1590.6,11.3 c -86.9,17.3 -157,53.4 -213.5,101.4 -16.3,13.8 -31.4,28.6 -45.5,44.2 -52.3,57.9 -106.4,145.5 -137.6,228.2 -52.4,138.7 -69.7,269 -147.4,342.6 -58,54.1 13.4,77.6 60.3,56.5 55.5,-20.7 107,-63.2 176.8,-168.5 59.2,-91 142.8,-258.1 304.8,-330.7 137.7,-62.5 250.5,-33.8 224,45 11.6,-23.5 19.4,-47.1 22,-70.6 10.3,-130.1 -101.3,-248 -238.5,-248 -1.7,-0.1 -3.5,-0.1 -5.4,-0.1"/><path id="path18570" d="m 1743.9,496.1 c -170.7,76.6 -153.2,158.8 -138.1,189.8 3.4,6.9 6.2,11.1 6.5,11.5 171.9,264.6 512.4,303.7 513.5,302.7 C 1954.1,844.5 1778.4,570.3 1837.5,460 c -30.2,11.7 -61.6,23.6 -93.6,36.1"/><path id="path18572" d="m 1743.9,496.1 c -170.7,76.6 -153.2,158.8 -138.1,189.8 3.4,6.9 6.2,11.1 6.5,11.5 171.9,264.6 512.4,303.7 513.5,302.7 C 1954.1,844.5 1778.4,570.3 1837.5,460 c -30.2,11.7 -61.6,23.6 -93.6,36.1"/><path id="path18574" d="m 1590.6,11.3 c 139.6,-3.2 254.4,116.1 243.9,248 -2.7,23.5 -10.5,47.1 -22,70.6 -27.3,55.2 -75.9,109.5 -130.3,158.4 -113.6,99.6 -93,167.6 -76.5,197.6 -15,-30.8 -32.6,-113.2 138.1,-189.8 228.1,-89.2 423.4,-148.6 360.6,-305.3 C 2032.2,30.4 1851.7,0 1725.2,0 1647.8,0 1590.6,11.3 1590.6,11.3"/><path id="path18576" d="m 0,126.1 v 0 145.5 H 163.2 V 790.2 H 326.5 V 271.7 H 489.7 V 126.1 Z m 948.8,0 -110,371.2 L 726.9,126.1 H 558 l 219.2,664.1 h 121.2 l 220.2,-664.1 z"/><path id="path18578" d="m 1590.6,11.3 c -86.9,17.3 -157,53.4 -213.5,101.4 -16.3,13.8 -31.4,28.6 -45.5,44.2 -52.3,57.9 -106.4,145.5 -137.6,228.2 -52.4,138.7 -69.7,269 -147.4,342.6 -58,54.1 13.4,77.6 60.3,56.5 55.5,-20.7 107,-63.2 176.8,-168.5 59.2,-91 142.8,-258.1 304.8,-330.7 137.7,-62.5 250.5,-33.8 224,45 11.6,-23.5 19.4,-47.1 22,-70.6 10.3,-130.1 -101.3,-248 -238.5,-248 -1.7,-0.1 -3.5,-0.1 -5.4,-0.1"/><path id="path2749" d="m 1743.9,496.1 c -170.7,76.6 -153.2,158.8 -138.1,189.8 3.4,6.9 6.2,11.1 6.5,11.5 171.9,264.6 512.4,303.7 513.5,302.7 C 1954.1,844.5 1778.4,570.3 1837.5,460 c -30.2,11.7 -61.6,23.6 -93.6,36.1"/><path id="path2751" d="m 1743.9,496.1 c -170.7,76.6 -153.2,158.8 -138.1,189.8 3.4,6.9 6.2,11.1 6.5,11.5 171.9,264.6 512.4,303.7 513.5,302.7 C 1954.1,844.5 1778.4,570.3 1837.5,460 c -30.2,11.7 -61.6,23.6 -93.6,36.1"/><path id="path2753" d="m 1590.6,11.3 c 139.6,-3.2 254.4,116.1 243.9,248 -2.7,23.5 -10.5,47.1 -22,70.6 -27.3,55.2 -75.9,109.5 -130.3,158.4 -113.6,99.6 -93,167.6 -76.5,197.6 -15,-30.8 -32.6,-113.2 138.1,-189.8 228.1,-89.2 423.4,-148.6 360.6,-305.3 C 2032.2,30.4 1851.7,0 1725.2,0 1647.8,0 1590.6,11.3 1590.6,11.3"/><path id="path2755" d="m 0,126.1 v 0 145.5 H 163.2 V 790.2 H 326.5 V 271.7 H 489.7 V 126.1 Z m 948.8,0 -110,371.2 L 726.9,126.1 H 558 l 219.2,664.1 h 121.2 l 220.2,-664.1 z"/><path id="path2757" d="m 1590.6,11.3 c -86.9,17.3 -157,53.4 -213.5,101.4 -16.3,13.8 -31.4,28.6 -45.5,44.2 -52.3,57.9 -106.4,145.5 -137.6,228.2 -52.4,138.7 -69.7,269 -147.4,342.6 -58,54.1 13.4,77.6 60.3,56.5 55.5,-20.7 107,-63.2 176.8,-168.5 59.2,-91 142.8,-258.1 304.8,-330.7 137.7,-62.5 250.5,-33.8 224,45 11.6,-23.5 19.4,-47.1 22,-70.6 10.3,-130.1 -101.3,-248 -238.5,-248 -1.7,-0.1 -3.5,-0.1 -5.4,-0.1"/><path id="path2759" d="m 1743.9,496.1 c -170.7,76.6 -153.2,158.8 -138.1,189.8 3.4,6.9 6.2,11.1 6.5,11.5 171.9,264.6 512.4,303.7 513.5,302.7 C 1954.1,844.5 1778.4,570.3 1837.5,460 c -30.2,11.7 -61.6,23.6 -93.6,36.1"/><path id="path2761" d="m 1743.9,496.1 c -170.7,76.6 -153.2,158.8 -138.1,189.8 3.4,6.9 6.2,11.1 6.5,11.5 171.9,264.6 512.4,303.7 513.5,302.7 C 1954.1,844.5 1778.4,570.3 1837.5,460 c -30.2,11.7 -61.6,23.6 -93.6,36.1"/><path id="path2763" d="m 1590.6,11.3 c 139.6,-3.2 254.4,116.1 243.9,248 -2.7,23.5 -10.5,47.1 -22,70.6 -27.3,55.2 -75.9,109.5 -130.3,158.4 -113.6,99.6 -93,167.6 -76.5,197.6 -15,-30.8 -32.6,-113.2 138.1,-189.8 228.1,-89.2 423.4,-148.6 360.6,-305.3 C 2032.2,30.4 1851.7,0 1725.2,0 1647.8,0 1590.6,11.3 1590.6,11.3"/><path id="path2765" d="m 0,126.1 v 0 145.5 H 163.2 V 790.2 H 326.5 V 271.7 H 489.7 V 126.1 Z m 948.8,0 -110,371.2 L 726.9,126.1 H 558 l 219.2,664.1 h 121.2 l 220.2,-664.1 z"/><path id="path2767" d="m 1590.6,11.3 c -86.9,17.3 -157,53.4 -213.5,101.4 -16.3,13.8 -31.4,28.6 -45.5,44.2 -52.3,57.9 -106.4,145.5 -137.6,228.2 -52.4,138.7 -69.7,269 -147.4,342.6 -58,54.1 13.4,77.6 60.3,56.5 55.5,-20.7 107,-63.2 176.8,-168.5 59.2,-91 142.8,-258.1 304.8,-330.7 137.7,-62.5 250.5,-33.8 224,45 11.6,-23.5 19.4,-47.1 22,-70.6 10.3,-130.1 -101.3,-248 -238.5,-248 -1.7,-0.1 -3.5,-0.1 -5.4,-0.1"/><path id="path2769" d="m 1743.9,496.1 c -170.7,76.6 -153.2,158.8 -138.1,189.8 3.4,6.9 6.2,11.1 6.5,11.5 171.9,264.6 512.4,303.7 513.5,302.7 C 1954.1,844.5 1778.4,570.3 1837.5,460 c -30.2,11.7 -61.6,23.6 -93.6,36.1"/><path id="path2771" d="m 1743.9,496.1 c -170.7,76.6 -153.2,158.8 -138.1,189.8 3.4,6.9 6.2,11.1 6.5,11.5 171.9,264.6 512.4,303.7 513.5,302.7 C 1954.1,844.5 1778.4,570.3 1837.5,460 c -30.2,11.7 -61.6,23.6 -93.6,36.1"/><path id="path2773" d="m 1590.6,11.3 c 139.6,-3.2 254.4,116.1 243.9,248 -2.7,23.5 -10.5,47.1 -22,70.6 -27.3,55.2 -75.9,109.5 -130.3,158.4 -113.6,99.6 -93,167.6 -76.5,197.6 -15,-30.8 -32.6,-113.2 138.1,-189.8 228.1,-89.2 423.4,-148.6 360.6,-305.3 C 2032.2,30.4 1851.7,0 1725.2,0 1647.8,0 1590.6,11.3 1590.6,11.3"/><path id="path2775" d="m 0,126.1 v 0 145.5 H 163.2 V 790.2 H 326.5 V 271.7 H 489.7 V 126.1 Z m 948.8,0 -110,371.2 L 726.9,126.1 H 558 l 219.2,664.1 h 121.2 l 220.2,-664.1 z"/><path id="path2777" d="m 1590.6,11.3 c -86.9,17.3 -157,53.4 -213.5,101.4 -16.3,13.8 -31.4,28.6 -45.5,44.2 -52.3,57.9 -106.4,145.5 -137.6,228.2 -52.4,138.7 -69.7,269 -147.4,342.6 -58,54.1 13.4,77.6 60.3,56.5 55.5,-20.7 107,-63.2 176.8,-168.5 59.2,-91 142.8,-258.1 304.8,-330.7 137.7,-62.5 250.5,-33.8 224,45 11.6,-23.5 19.4,-47.1 22,-70.6 10.3,-130.1 -101.3,-248 -238.5,-248 -1.7,-0.1 -3.5,-0.1 -5.4,-0.1"/><path id="SVGID_1_-6" d="m 2666.3,324.7 h -97.5 c -14.2,-68.1 -57.6,-113.8 -127.6,-113.8 -38.1,0 -70,14 -93.1,40.1 -31.9,35.4 -38.1,75.6 -38.1,207.1 0,131.5 6.2,171.6 38.1,207.1 23,26.1 54.9,40.1 93.1,40.1 70,0 113.4,-45.7 127.6,-113.8 h 97.5 c -22.2,131.5 -109.9,204.3 -225.1,204.3 -69.1,0 -122.3,-24.3 -163.1,-67.2 -61.2,-65.3 -63.8,-131.5 -63.8,-270.5 0,-139 2.7,-205.2 63.8,-270.5 40.8,-42.9 93.9,-67.2 163.1,-67.2 116.1,0 202.9,72.7 225.1,204.3 z M 3193.6,126 v 440.3 c 0,137.1 -98.4,229.5 -226.9,229.5 -128.5,0 -226,-92.3 -226,-229.5 V 126 h 95.7 v 435.6 c 0,88.6 51.4,143.6 130.3,143.6 78.9,0 131.2,-55 131.2,-143.6 V 126 Z m 208.3,0 v 573.7 h 304 v 90.5 H 3306.2 V 126 Z m 669.9,0 v 90.5 h -173.7 v 573.7 h -95.7 V 216.5 H 3628.7 V 126 Z m 525.6,0 v 440.3 c 0,137.1 -98.4,229.5 -226.9,229.5 -128.5,0 -226,-92.3 -226,-229.5 V 126 h 95.7 v 435.6 c 0,88.6 51.4,143.6 130.3,143.6 78.9,0 131.2,-55 131.2,-143.6 V 126 Z m 111.7,0 h 244.6 c 119.6,0 195.9,81.2 195.9,194 0,95.1 -54.9,155.8 -125.8,176.3 L 5169,790.1 H 5057.3 L 4924.4,510.3 h -119.6 v 279.8 h -95.7 z m 95.7,90.5 v 208 h 141.8 c 63.8,0 107.2,-38.2 107.2,-103.5 0,-65.3 -43.4,-104.5 -107.2,-104.5 z m 724,-90.5 231.3,664.1 h -101.9 l -43.4,-133.4 h -249 l -43.4,133.4 H 5220.5 L 5451.7,126 Z m -39,150.2 -96.6,294.8 h 194.1 z m 429,-150.2 v 573.7 h 304 v 90.5 H 5823.1 V 126 Z"/><path id="SVGID_00000004517832585976790420000009681570420941840773_-5" d="m 1743.9,496.1 c -170.7,76.6 -153.2,158.8 -138.1,189.8 3.4,6.9 6.2,11.1 6.5,11.5 171.9,264.6 512.4,303.7 513.5,302.7 C 1954.1,844.5 1778.4,570.3 1837.5,460 c -30.2,11.7 -61.6,23.6 -93.6,36.1"/><path id="SVGID_00000026122884953094692770000004664168062016065937_-9" d="m 1590.6,11.3 c 139.6,-3.2 254.4,116.1 243.9,248 -2.7,23.5 -10.5,47.1 -22,70.6 -27.3,55.2 -75.9,109.5 -130.3,158.4 -113.6,99.6 -93,167.6 -76.5,197.6 -15,-30.8 -32.6,-113.2 138.1,-189.8 228.1,-89.2 423.4,-148.6 360.6,-305.3 C 2032.2,30.4 1851.7,0 1725.2,0 1647.8,0 1590.6,11.3 1590.6,11.3"/><path id="SVGID_00000043459113457493937310000015151287445425353890_-1" d="m 1590.6,11.3 c -86.9,17.3 -157,53.4 -213.5,101.4 -16.3,13.8 -31.4,28.6 -45.5,44.2 -52.3,57.9 -106.4,145.5 -137.6,228.2 -52.4,138.7 -69.7,269 -147.4,342.6 -58,54.1 13.4,77.6 60.3,56.5 55.5,-20.7 107,-63.2 176.8,-168.5 59.2,-91 142.8,-258.1 304.8,-330.7 137.7,-62.5 250.5,-33.8 224,45 11.6,-23.5 19.4,-47.1 22,-70.6 10.3,-130.1 -101.3,-248 -238.5,-248 -1.7,-0.1 -3.5,-0.1 -5.4,-0.1"/><path id="SVGID_00000143603414097528338740000010794203758393663144_-9" d="m 0,126.1 v 0 145.5 H 163.2 V 790.2 H 326.5 V 271.7 H 489.7 V 126.1 Z m 948.8,0 -110,371.2 L 726.9,126.1 H 558 l 219.2,664.1 h 121.2 l 220.2,-664.1 z"/><clipPath id="SVGID_00000143604327886209795450000015356285279467233666_-0-6">
		<use xlink:href="#SVGID_00000004517832585976790420000009681570420941840773_-5" style="overflow:visible" id="use1971-3-83"/>
	</clipPath><path id="path2076-1-7" d="m 1743.9,496.1 c -170.7,76.6 -153.2,158.8 -138.1,189.8 3.4,6.9 6.2,11.1 6.5,11.5 171.9,264.6 512.4,303.7 513.5,302.7 C 1954.1,844.5 1778.4,570.3 1837.5,460 c -30.2,11.7 -61.6,23.6 -93.6,36.1"/><defs id="defs1969-6-4">
		<path id="path4132-7" d="m 1743.9,496.1 c -170.7,76.6 -153.2,158.8 -138.1,189.8 3.4,6.9 6.2,11.1 6.5,11.5 171.9,264.6 512.4,303.7 513.5,302.7 C 1954.1,844.5 1778.4,570.3 1837.5,460 c -30.2,11.7 -61.6,23.6 -93.6,36.1"/>
	</defs><clipPath id="clipPath4065-15">
		<use xlink:href="#SVGID_00000004517832585976790420000009681570420941840773_-5" style="overflow:visible" id="use4063-7"/>
	</clipPath><defs id="defs1969-0">
		<path id="path2076-11" d="m 1743.9,496.1 c -170.7,76.6 -153.2,158.8 -138.1,189.8 3.4,6.9 6.2,11.1 6.5,11.5 171.9,264.6 512.4,303.7 513.5,302.7 C 1954.1,844.5 1778.4,570.3 1837.5,460 c -30.2,11.7 -61.6,23.6 -93.6,36.1"/>
	</defs><defs id="defs1988-5">
		<path id="path2088-6" d="m 1590.6,11.3 c 139.6,-3.2 254.4,116.1 243.9,248 -2.7,23.5 -10.5,47.1 -22,70.6 -27.3,55.2 -75.9,109.5 -130.3,158.4 -113.6,99.6 -93,167.6 -76.5,197.6 -15,-30.8 -32.6,-113.2 138.1,-189.8 228.1,-89.2 423.4,-148.6 360.6,-305.3 C 2032.2,30.4 1851.7,0 1725.2,0 1647.8,0 1590.6,11.3 1590.6,11.3"/>
	</defs><defs id="defs2032-2">
		<path id="path2115-3" d="m 0,126.1 v 0 145.5 H 163.2 V 790.2 H 326.5 V 271.7 H 489.7 V 126.1 Z m 948.8,0 -110,371.2 L 726.9,126.1 H 558 l 219.2,664.1 h 121.2 l 220.2,-664.1 z"/>
	</defs><defs id="defs2011-2">
		<path id="path2102-9" d="m 1590.6,11.3 c -86.9,17.3 -157,53.4 -213.5,101.4 -16.3,13.8 -31.4,28.6 -45.5,44.2 -52.3,57.9 -106.4,145.5 -137.6,228.2 -52.4,138.7 -69.7,269 -147.4,342.6 -58,54.1 13.4,77.6 60.3,56.5 55.5,-20.7 107,-63.2 176.8,-168.5 59.2,-91 142.8,-258.1 304.8,-330.7 137.7,-62.5 250.5,-33.8 224,45 11.6,-23.5 19.4,-47.1 22,-70.6 10.3,-130.1 -101.3,-248 -238.5,-248 -1.7,-0.1 -3.5,-0.1 -5.4,-0.1"/>
	</defs><path id="path801-1" d="m 1743.9,496.1 c -170.7,76.6 -153.2,158.8 -138.1,189.8 3.4,6.9 6.2,11.1 6.5,11.5 171.9,264.6 512.4,303.7 513.5,302.7 C 1954.1,844.5 1778.4,570.3 1837.5,460 c -30.2,11.7 -61.6,23.6 -93.6,36.1"/><path id="path803-7" d="m 1743.9,496.1 c -170.7,76.6 -153.2,158.8 -138.1,189.8 3.4,6.9 6.2,11.1 6.5,11.5 171.9,264.6 512.4,303.7 513.5,302.7 C 1954.1,844.5 1778.4,570.3 1837.5,460 c -30.2,11.7 -61.6,23.6 -93.6,36.1"/><path id="path805-0" d="m 1590.6,11.3 c 139.6,-3.2 254.4,116.1 243.9,248 -2.7,23.5 -10.5,47.1 -22,70.6 -27.3,55.2 -75.9,109.5 -130.3,158.4 -113.6,99.6 -93,167.6 -76.5,197.6 -15,-30.8 -32.6,-113.2 138.1,-189.8 228.1,-89.2 423.4,-148.6 360.6,-305.3 C 2032.2,30.4 1851.7,0 1725.2,0 1647.8,0 1590.6,11.3 1590.6,11.3"/><path id="path807-4" d="m 0,126.1 v 0 145.5 H 163.2 V 790.2 H 326.5 V 271.7 H 489.7 V 126.1 Z m 948.8,0 -110,371.2 L 726.9,126.1 H 558 l 219.2,664.1 h 121.2 l 220.2,-664.1 z"/><path id="path809-6" d="m 1590.6,11.3 c -86.9,17.3 -157,53.4 -213.5,101.4 -16.3,13.8 -31.4,28.6 -45.5,44.2 -52.3,57.9 -106.4,145.5 -137.6,228.2 -52.4,138.7 -69.7,269 -147.4,342.6 -58,54.1 13.4,77.6 60.3,56.5 55.5,-20.7 107,-63.2 176.8,-168.5 59.2,-91 142.8,-258.1 304.8,-330.7 137.7,-62.5 250.5,-33.8 224,45 11.6,-23.5 19.4,-47.1 22,-70.6 10.3,-130.1 -101.3,-248 -238.5,-248 -1.7,-0.1 -3.5,-0.1 -5.4,-0.1"/><path id="SVGID_1_-0-3" d="m 2666.3,324.7 h -97.5 c -14.2,-68.1 -57.6,-113.8 -127.6,-113.8 -38.1,0 -70,14 -93.1,40.1 -31.9,35.4 -38.1,75.6 -38.1,207.1 0,131.5 6.2,171.6 38.1,207.1 23,26.1 54.9,40.1 93.1,40.1 70,0 113.4,-45.7 127.6,-113.8 h 97.5 c -22.2,131.5 -109.9,204.3 -225.1,204.3 -69.1,0 -122.3,-24.3 -163.1,-67.2 -61.2,-65.3 -63.8,-131.5 -63.8,-270.5 0,-139 2.7,-205.2 63.8,-270.5 40.8,-42.9 93.9,-67.2 163.1,-67.2 116.1,0 202.9,72.7 225.1,204.3 z M 3193.6,126 v 440.3 c 0,137.1 -98.4,229.5 -226.9,229.5 -128.5,0 -226,-92.3 -226,-229.5 V 126 h 95.7 v 435.6 c 0,88.6 51.4,143.6 130.3,143.6 78.9,0 131.2,-55 131.2,-143.6 V 126 Z m 208.3,0 v 573.7 h 304 v 90.5 H 3306.2 V 126 Z m 669.9,0 v 90.5 h -173.7 v 573.7 h -95.7 V 216.5 H 3628.7 V 126 Z m 525.6,0 v 440.3 c 0,137.1 -98.4,229.5 -226.9,229.5 -128.5,0 -226,-92.3 -226,-229.5 V 126 h 95.7 v 435.6 c 0,88.6 51.4,143.6 130.3,143.6 78.9,0 131.2,-55 131.2,-143.6 V 126 Z m 111.7,0 h 244.6 c 119.6,0 195.9,81.2 195.9,194 0,95.1 -54.9,155.8 -125.8,176.3 L 5169,790.1 H 5057.3 L 4924.4,510.3 h -119.6 v 279.8 h -95.7 z m 95.7,90.5 v 208 h 141.8 c 63.8,0 107.2,-38.2 107.2,-103.5 0,-65.3 -43.4,-104.5 -107.2,-104.5 z m 724,-90.5 231.3,664.1 h -101.9 l -43.4,-133.4 h -249 l -43.4,133.4 H 5220.5 L 5451.7,126 Z m -39,150.2 -96.6,294.8 h 194.1 z m 429,-150.2 v 573.7 h 304 v 90.5 H 5823.1 V 126 Z"/><path id="SVGID_00000004517832585976790420000009681570420941840773_-8-7" d="m 1743.9,496.1 c -170.7,76.6 -153.2,158.8 -138.1,189.8 3.4,6.9 6.2,11.1 6.5,11.5 171.9,264.6 512.4,303.7 513.5,302.7 C 1954.1,844.5 1778.4,570.3 1837.5,460 c -30.2,11.7 -61.6,23.6 -93.6,36.1"/><path id="SVGID_00000026122884953094692770000004664168062016065937_-0-7" d="m 1590.6,11.3 c 139.6,-3.2 254.4,116.1 243.9,248 -2.7,23.5 -10.5,47.1 -22,70.6 -27.3,55.2 -75.9,109.5 -130.3,158.4 -113.6,99.6 -93,167.6 -76.5,197.6 -15,-30.8 -32.6,-113.2 138.1,-189.8 228.1,-89.2 423.4,-148.6 360.6,-305.3 C 2032.2,30.4 1851.7,0 1725.2,0 1647.8,0 1590.6,11.3 1590.6,11.3"/><path id="SVGID_00000043459113457493937310000015151287445425353890_-6-3" d="m 1590.6,11.3 c -86.9,17.3 -157,53.4 -213.5,101.4 -16.3,13.8 -31.4,28.6 -45.5,44.2 -52.3,57.9 -106.4,145.5 -137.6,228.2 -52.4,138.7 -69.7,269 -147.4,342.6 -58,54.1 13.4,77.6 60.3,56.5 55.5,-20.7 107,-63.2 176.8,-168.5 59.2,-91 142.8,-258.1 304.8,-330.7 137.7,-62.5 250.5,-33.8 224,45 11.6,-23.5 19.4,-47.1 22,-70.6 10.3,-130.1 -101.3,-248 -238.5,-248 -1.7,-0.1 -3.5,-0.1 -5.4,-0.1"/><path id="SVGID_00000143603414097528338740000010794203758393663144_-4-8" d="m 0,126.1 v 0 145.5 H 163.2 V 790.2 H 326.5 V 271.7 H 489.7 V 126.1 Z m 948.8,0 -110,371.2 L 726.9,126.1 H 558 l 219.2,664.1 h 121.2 l 220.2,-664.1 z"/><clipPath id="SVGID_00000143604327886209795450000015356285279467233666_-0-0-7">
		<use xlink:href="#SVGID_00000004517832585976790420000009681570420941840773_-8-7" style="overflow:visible" id="use1971-3-1-2"/>
	</clipPath><path id="path2076-1-9-4" d="m 1743.9,496.1 c -170.7,76.6 -153.2,158.8 -138.1,189.8 3.4,6.9 6.2,11.1 6.5,11.5 171.9,264.6 512.4,303.7 513.5,302.7 C 1954.1,844.5 1778.4,570.3 1837.5,460 c -30.2,11.7 -61.6,23.6 -93.6,36.1"/><defs id="defs1969-6-1-4">
		<path id="path4132-3-2" d="m 1743.9,496.1 c -170.7,76.6 -153.2,158.8 -138.1,189.8 3.4,6.9 6.2,11.1 6.5,11.5 171.9,264.6 512.4,303.7 513.5,302.7 C 1954.1,844.5 1778.4,570.3 1837.5,460 c -30.2,11.7 -61.6,23.6 -93.6,36.1"/>
	</defs><clipPath id="clipPath4065-1-2">
		<use xlink:href="#SVGID_00000004517832585976790420000009681570420941840773_-8-7" style="overflow:visible" id="use4063-1-8"/>
	</clipPath><defs id="defs1969-7-0">
		<path id="path2076-6-4" d="m 1743.9,496.1 c -170.7,76.6 -153.2,158.8 -138.1,189.8 3.4,6.9 6.2,11.1 6.5,11.5 171.9,264.6 512.4,303.7 513.5,302.7 C 1954.1,844.5 1778.4,570.3 1837.5,460 c -30.2,11.7 -61.6,23.6 -93.6,36.1"/>
	</defs><defs id="defs1988-0-5">
		<path id="path2088-1-5" d="m 1590.6,11.3 c 139.6,-3.2 254.4,116.1 243.9,248 -2.7,23.5 -10.5,47.1 -22,70.6 -27.3,55.2 -75.9,109.5 -130.3,158.4 -113.6,99.6 -93,167.6 -76.5,197.6 -15,-30.8 -32.6,-113.2 138.1,-189.8 228.1,-89.2 423.4,-148.6 360.6,-305.3 C 2032.2,30.4 1851.7,0 1725.2,0 1647.8,0 1590.6,11.3 1590.6,11.3"/>
	</defs><defs id="defs2032-8-0">
		<path id="path2115-8-0" d="m 0,126.1 v 0 145.5 H 163.2 V 790.2 H 326.5 V 271.7 H 489.7 V 126.1 Z m 948.8,0 -110,371.2 L 726.9,126.1 H 558 l 219.2,664.1 h 121.2 l 220.2,-664.1 z"/>
	</defs><defs id="defs2011-3-5">
		<path id="path2102-0-9" d="m 1590.6,11.3 c -86.9,17.3 -157,53.4 -213.5,101.4 -16.3,13.8 -31.4,28.6 -45.5,44.2 -52.3,57.9 -106.4,145.5 -137.6,228.2 -52.4,138.7 -69.7,269 -147.4,342.6 -58,54.1 13.4,77.6 60.3,56.5 55.5,-20.7 107,-63.2 176.8,-168.5 59.2,-91 142.8,-258.1 304.8,-330.7 137.7,-62.5 250.5,-33.8 224,45 11.6,-23.5 19.4,-47.1 22,-70.6 10.3,-130.1 -101.3,-248 -238.5,-248 -1.7,-0.1 -3.5,-0.1 -5.4,-0.1"/>
	</defs><path id="path801-8-1" d="m 1743.9,496.1 c -170.7,76.6 -153.2,158.8 -138.1,189.8 3.4,6.9 6.2,11.1 6.5,11.5 171.9,264.6 512.4,303.7 513.5,302.7 C 1954.1,844.5 1778.4,570.3 1837.5,460 c -30.2,11.7 -61.6,23.6 -93.6,36.1"/><path id="path803-9-4" d="m 1743.9,496.1 c -170.7,76.6 -153.2,158.8 -138.1,189.8 3.4,6.9 6.2,11.1 6.5,11.5 171.9,264.6 512.4,303.7 513.5,302.7 C 1954.1,844.5 1778.4,570.3 1837.5,460 c -30.2,11.7 -61.6,23.6 -93.6,36.1"/><path id="path805-3-3" d="m 1590.6,11.3 c 139.6,-3.2 254.4,116.1 243.9,248 -2.7,23.5 -10.5,47.1 -22,70.6 -27.3,55.2 -75.9,109.5 -130.3,158.4 -113.6,99.6 -93,167.6 -76.5,197.6 -15,-30.8 -32.6,-113.2 138.1,-189.8 228.1,-89.2 423.4,-148.6 360.6,-305.3 C 2032.2,30.4 1851.7,0 1725.2,0 1647.8,0 1590.6,11.3 1590.6,11.3"/><path id="path807-0-6" d="m 0,126.1 v 0 145.5 H 163.2 V 790.2 H 326.5 V 271.7 H 489.7 V 126.1 Z m 948.8,0 -110,371.2 L 726.9,126.1 H 558 l 219.2,664.1 h 121.2 l 220.2,-664.1 z"/><path id="path809-3-6" d="m 1590.6,11.3 c -86.9,17.3 -157,53.4 -213.5,101.4 -16.3,13.8 -31.4,28.6 -45.5,44.2 -52.3,57.9 -106.4,145.5 -137.6,228.2 -52.4,138.7 -69.7,269 -147.4,342.6 -58,54.1 13.4,77.6 60.3,56.5 55.5,-20.7 107,-63.2 176.8,-168.5 59.2,-91 142.8,-258.1 304.8,-330.7 137.7,-62.5 250.5,-33.8 224,45 11.6,-23.5 19.4,-47.1 22,-70.6 10.3,-130.1 -101.3,-248 -238.5,-248 -1.7,-0.1 -3.5,-0.1 -5.4,-0.1"/><path id="path7700-0" d="m 1743.9,496.1 c -170.7,76.6 -153.2,158.8 -138.1,189.8 3.4,6.9 6.2,11.1 6.5,11.5 171.9,264.6 512.4,303.7 513.5,302.7 C 1954.1,844.5 1778.4,570.3 1837.5,460 c -30.2,11.7 -61.6,23.6 -93.6,36.1"/><path id="path7702-1" d="m 1743.9,496.1 c -170.7,76.6 -153.2,158.8 -138.1,189.8 3.4,6.9 6.2,11.1 6.5,11.5 171.9,264.6 512.4,303.7 513.5,302.7 C 1954.1,844.5 1778.4,570.3 1837.5,460 c -30.2,11.7 -61.6,23.6 -93.6,36.1"/><path id="path7704-8" d="m 1590.6,11.3 c 139.6,-3.2 254.4,116.1 243.9,248 -2.7,23.5 -10.5,47.1 -22,70.6 -27.3,55.2 -75.9,109.5 -130.3,158.4 -113.6,99.6 -93,167.6 -76.5,197.6 -15,-30.8 -32.6,-113.2 138.1,-189.8 228.1,-89.2 423.4,-148.6 360.6,-305.3 C 2032.2,30.4 1851.7,0 1725.2,0 1647.8,0 1590.6,11.3 1590.6,11.3"/><path id="path7706-9" d="m 0,126.1 v 0 145.5 H 163.2 V 790.2 H 326.5 V 271.7 H 489.7 V 126.1 Z m 948.8,0 -110,371.2 L 726.9,126.1 H 558 l 219.2,664.1 h 121.2 l 220.2,-664.1 z"/><path id="path7708-3" d="m 1590.6,11.3 c -86.9,17.3 -157,53.4 -213.5,101.4 -16.3,13.8 -31.4,28.6 -45.5,44.2 -52.3,57.9 -106.4,145.5 -137.6,228.2 -52.4,138.7 -69.7,269 -147.4,342.6 -58,54.1 13.4,77.6 60.3,56.5 55.5,-20.7 107,-63.2 176.8,-168.5 59.2,-91 142.8,-258.1 304.8,-330.7 137.7,-62.5 250.5,-33.8 224,45 11.6,-23.5 19.4,-47.1 22,-70.6 10.3,-130.1 -101.3,-248 -238.5,-248 -1.7,-0.1 -3.5,-0.1 -5.4,-0.1"/><path id="SVGID_1_-7-3" d="m 2666.3,324.7 h -97.5 c -14.2,-68.1 -57.6,-113.8 -127.6,-113.8 -38.1,0 -70,14 -93.1,40.1 -31.9,35.4 -38.1,75.6 -38.1,207.1 0,131.5 6.2,171.6 38.1,207.1 23,26.1 54.9,40.1 93.1,40.1 70,0 113.4,-45.7 127.6,-113.8 h 97.5 c -22.2,131.5 -109.9,204.3 -225.1,204.3 -69.1,0 -122.3,-24.3 -163.1,-67.2 -61.2,-65.3 -63.8,-131.5 -63.8,-270.5 0,-139 2.7,-205.2 63.8,-270.5 40.8,-42.9 93.9,-67.2 163.1,-67.2 116.1,0 202.9,72.7 225.1,204.3 z M 3193.6,126 v 440.3 c 0,137.1 -98.4,229.5 -226.9,229.5 -128.5,0 -226,-92.3 -226,-229.5 V 126 h 95.7 v 435.6 c 0,88.6 51.4,143.6 130.3,143.6 78.9,0 131.2,-55 131.2,-143.6 V 126 Z m 208.3,0 v 573.7 h 304 v 90.5 H 3306.2 V 126 Z m 669.9,0 v 90.5 h -173.7 v 573.7 h -95.7 V 216.5 H 3628.7 V 126 Z m 525.6,0 v 440.3 c 0,137.1 -98.4,229.5 -226.9,229.5 -128.5,0 -226,-92.3 -226,-229.5 V 126 h 95.7 v 435.6 c 0,88.6 51.4,143.6 130.3,143.6 78.9,0 131.2,-55 131.2,-143.6 V 126 Z m 111.7,0 h 244.6 c 119.6,0 195.9,81.2 195.9,194 0,95.1 -54.9,155.8 -125.8,176.3 L 5169,790.1 H 5057.3 L 4924.4,510.3 h -119.6 v 279.8 h -95.7 z m 95.7,90.5 v 208 h 141.8 c 63.8,0 107.2,-38.2 107.2,-103.5 0,-65.3 -43.4,-104.5 -107.2,-104.5 z m 724,-90.5 231.3,664.1 h -101.9 l -43.4,-133.4 h -249 l -43.4,133.4 H 5220.5 L 5451.7,126 Z m -39,150.2 -96.6,294.8 h 194.1 z m 429,-150.2 v 573.7 h 304 v 90.5 H 5823.1 V 126 Z"/><path id="SVGID_00000004517832585976790420000009681570420941840773_-9-4" d="m 1743.9,496.1 c -170.7,76.6 -153.2,158.8 -138.1,189.8 3.4,6.9 6.2,11.1 6.5,11.5 171.9,264.6 512.4,303.7 513.5,302.7 C 1954.1,844.5 1778.4,570.3 1837.5,460 c -30.2,11.7 -61.6,23.6 -93.6,36.1"/><path id="SVGID_00000026122884953094692770000004664168062016065937_-3-4" d="m 1590.6,11.3 c 139.6,-3.2 254.4,116.1 243.9,248 -2.7,23.5 -10.5,47.1 -22,70.6 -27.3,55.2 -75.9,109.5 -130.3,158.4 -113.6,99.6 -93,167.6 -76.5,197.6 -15,-30.8 -32.6,-113.2 138.1,-189.8 228.1,-89.2 423.4,-148.6 360.6,-305.3 C 2032.2,30.4 1851.7,0 1725.2,0 1647.8,0 1590.6,11.3 1590.6,11.3"/><path id="SVGID_00000043459113457493937310000015151287445425353890_-0-2" d="m 1590.6,11.3 c -86.9,17.3 -157,53.4 -213.5,101.4 -16.3,13.8 -31.4,28.6 -45.5,44.2 -52.3,57.9 -106.4,145.5 -137.6,228.2 -52.4,138.7 -69.7,269 -147.4,342.6 -58,54.1 13.4,77.6 60.3,56.5 55.5,-20.7 107,-63.2 176.8,-168.5 59.2,-91 142.8,-258.1 304.8,-330.7 137.7,-62.5 250.5,-33.8 224,45 11.6,-23.5 19.4,-47.1 22,-70.6 10.3,-130.1 -101.3,-248 -238.5,-248 -1.7,-0.1 -3.5,-0.1 -5.4,-0.1"/><path id="SVGID_00000143603414097528338740000010794203758393663144_-0-4" d="m 0,126.1 v 0 145.5 H 163.2 V 790.2 H 326.5 V 271.7 H 489.7 V 126.1 Z m 948.8,0 -110,371.2 L 726.9,126.1 H 558 l 219.2,664.1 h 121.2 l 220.2,-664.1 z"/><clipPath id="SVGID_00000143604327886209795450000015356285279467233666_-0-9-4">
		<use xlink:href="#SVGID_00000004517832585976790420000009681570420941840773_-9-4" style="overflow:visible" id="use1971-3-8-2"/>
	</clipPath><path id="path2076-1-6-7" d="m 1743.9,496.1 c -170.7,76.6 -153.2,158.8 -138.1,189.8 3.4,6.9 6.2,11.1 6.5,11.5 171.9,264.6 512.4,303.7 513.5,302.7 C 1954.1,844.5 1778.4,570.3 1837.5,460 c -30.2,11.7 -61.6,23.6 -93.6,36.1"/><defs id="defs1969-6-8-6">
		<path id="path4132-5-5" d="m 1743.9,496.1 c -170.7,76.6 -153.2,158.8 -138.1,189.8 3.4,6.9 6.2,11.1 6.5,11.5 171.9,264.6 512.4,303.7 513.5,302.7 C 1954.1,844.5 1778.4,570.3 1837.5,460 c -30.2,11.7 -61.6,23.6 -93.6,36.1"/>
	</defs><clipPath id="clipPath4065-6-7">
		<use xlink:href="#SVGID_00000004517832585976790420000009681570420941840773_-9-4" style="overflow:visible" id="use4063-5-9"/>
	</clipPath><defs id="defs1969-3-7">
		<path id="path2076-7-0" d="m 1743.9,496.1 c -170.7,76.6 -153.2,158.8 -138.1,189.8 3.4,6.9 6.2,11.1 6.5,11.5 171.9,264.6 512.4,303.7 513.5,302.7 C 1954.1,844.5 1778.4,570.3 1837.5,460 c -30.2,11.7 -61.6,23.6 -93.6,36.1"/>
	</defs><defs id="defs1988-7-0">
		<path id="path2088-7-1" d="m 1590.6,11.3 c 139.6,-3.2 254.4,116.1 243.9,248 -2.7,23.5 -10.5,47.1 -22,70.6 -27.3,55.2 -75.9,109.5 -130.3,158.4 -113.6,99.6 -93,167.6 -76.5,197.6 -15,-30.8 -32.6,-113.2 138.1,-189.8 228.1,-89.2 423.4,-148.6 360.6,-305.3 C 2032.2,30.4 1851.7,0 1725.2,0 1647.8,0 1590.6,11.3 1590.6,11.3"/>
	</defs><defs id="defs2032-1-2">
		<path id="path2115-0-7" d="m 0,126.1 v 0 145.5 H 163.2 V 790.2 H 326.5 V 271.7 H 489.7 V 126.1 Z m 948.8,0 -110,371.2 L 726.9,126.1 H 558 l 219.2,664.1 h 121.2 l 220.2,-664.1 z"/>
	</defs><defs id="defs2011-1-1">
		<path id="path2102-05-6" d="m 1590.6,11.3 c -86.9,17.3 -157,53.4 -213.5,101.4 -16.3,13.8 -31.4,28.6 -45.5,44.2 -52.3,57.9 -106.4,145.5 -137.6,228.2 -52.4,138.7 -69.7,269 -147.4,342.6 -58,54.1 13.4,77.6 60.3,56.5 55.5,-20.7 107,-63.2 176.8,-168.5 59.2,-91 142.8,-258.1 304.8,-330.7 137.7,-62.5 250.5,-33.8 224,45 11.6,-23.5 19.4,-47.1 22,-70.6 10.3,-130.1 -101.3,-248 -238.5,-248 -1.7,-0.1 -3.5,-0.1 -5.4,-0.1"/>
	</defs><path id="path801-2-1" d="m 1743.9,496.1 c -170.7,76.6 -153.2,158.8 -138.1,189.8 3.4,6.9 6.2,11.1 6.5,11.5 171.9,264.6 512.4,303.7 513.5,302.7 C 1954.1,844.5 1778.4,570.3 1837.5,460 c -30.2,11.7 -61.6,23.6 -93.6,36.1"/><path id="path803-96-0" d="m 1743.9,496.1 c -170.7,76.6 -153.2,158.8 -138.1,189.8 3.4,6.9 6.2,11.1 6.5,11.5 171.9,264.6 512.4,303.7 513.5,302.7 C 1954.1,844.5 1778.4,570.3 1837.5,460 c -30.2,11.7 -61.6,23.6 -93.6,36.1"/><path id="path805-35-7" d="m 1590.6,11.3 c 139.6,-3.2 254.4,116.1 243.9,248 -2.7,23.5 -10.5,47.1 -22,70.6 -27.3,55.2 -75.9,109.5 -130.3,158.4 -113.6,99.6 -93,167.6 -76.5,197.6 -15,-30.8 -32.6,-113.2 138.1,-189.8 228.1,-89.2 423.4,-148.6 360.6,-305.3 C 2032.2,30.4 1851.7,0 1725.2,0 1647.8,0 1590.6,11.3 1590.6,11.3"/><path id="path807-2-5" d="m 0,126.1 v 0 145.5 H 163.2 V 790.2 H 326.5 V 271.7 H 489.7 V 126.1 Z m 948.8,0 -110,371.2 L 726.9,126.1 H 558 l 219.2,664.1 h 121.2 l 220.2,-664.1 z"/><path id="path809-1-8" d="m 1590.6,11.3 c -86.9,17.3 -157,53.4 -213.5,101.4 -16.3,13.8 -31.4,28.6 -45.5,44.2 -52.3,57.9 -106.4,145.5 -137.6,228.2 -52.4,138.7 -69.7,269 -147.4,342.6 -58,54.1 13.4,77.6 60.3,56.5 55.5,-20.7 107,-63.2 176.8,-168.5 59.2,-91 142.8,-258.1 304.8,-330.7 137.7,-62.5 250.5,-33.8 224,45 11.6,-23.5 19.4,-47.1 22,-70.6 10.3,-130.1 -101.3,-248 -238.5,-248 -1.7,-0.1 -3.5,-0.1 -5.4,-0.1"/><path id="path18570-0" d="m 1743.9,496.1 c -170.7,76.6 -153.2,158.8 -138.1,189.8 3.4,6.9 6.2,11.1 6.5,11.5 171.9,264.6 512.4,303.7 513.5,302.7 C 1954.1,844.5 1778.4,570.3 1837.5,460 c -30.2,11.7 -61.6,23.6 -93.6,36.1"/><path id="path18572-0" d="m 1743.9,496.1 c -170.7,76.6 -153.2,158.8 -138.1,189.8 3.4,6.9 6.2,11.1 6.5,11.5 171.9,264.6 512.4,303.7 513.5,302.7 C 1954.1,844.5 1778.4,570.3 1837.5,460 c -30.2,11.7 -61.6,23.6 -93.6,36.1"/><path id="path18574-8" d="m 1590.6,11.3 c 139.6,-3.2 254.4,116.1 243.9,248 -2.7,23.5 -10.5,47.1 -22,70.6 -27.3,55.2 -75.9,109.5 -130.3,158.4 -113.6,99.6 -93,167.6 -76.5,197.6 -15,-30.8 -32.6,-113.2 138.1,-189.8 228.1,-89.2 423.4,-148.6 360.6,-305.3 C 2032.2,30.4 1851.7,0 1725.2,0 1647.8,0 1590.6,11.3 1590.6,11.3"/><path id="path18576-5" d="m 0,126.1 v 0 145.5 H 163.2 V 790.2 H 326.5 V 271.7 H 489.7 V 126.1 Z m 948.8,0 -110,371.2 L 726.9,126.1 H 558 l 219.2,664.1 h 121.2 l 220.2,-664.1 z"/><path id="path18578-9" d="m 1590.6,11.3 c -86.9,17.3 -157,53.4 -213.5,101.4 -16.3,13.8 -31.4,28.6 -45.5,44.2 -52.3,57.9 -106.4,145.5 -137.6,228.2 -52.4,138.7 -69.7,269 -147.4,342.6 -58,54.1 13.4,77.6 60.3,56.5 55.5,-20.7 107,-63.2 176.8,-168.5 59.2,-91 142.8,-258.1 304.8,-330.7 137.7,-62.5 250.5,-33.8 224,45 11.6,-23.5 19.4,-47.1 22,-70.6 10.3,-130.1 -101.3,-248 -238.5,-248 -1.7,-0.1 -3.5,-0.1 -5.4,-0.1"/><path id="path22424" d="m 1743.9,496.1 c -170.7,76.6 -153.2,158.8 -138.1,189.8 3.4,6.9 6.2,11.1 6.5,11.5 171.9,264.6 512.4,303.7 513.5,302.7 C 1954.1,844.5 1778.4,570.3 1837.5,460 c -30.2,11.7 -61.6,23.6 -93.6,36.1"/><path id="path22426" d="m 1743.9,496.1 c -170.7,76.6 -153.2,158.8 -138.1,189.8 3.4,6.9 6.2,11.1 6.5,11.5 171.9,264.6 512.4,303.7 513.5,302.7 C 1954.1,844.5 1778.4,570.3 1837.5,460 c -30.2,11.7 -61.6,23.6 -93.6,36.1"/><path id="path22428" d="m 1590.6,11.3 c 139.6,-3.2 254.4,116.1 243.9,248 -2.7,23.5 -10.5,47.1 -22,70.6 -27.3,55.2 -75.9,109.5 -130.3,158.4 -113.6,99.6 -93,167.6 -76.5,197.6 -15,-30.8 -32.6,-113.2 138.1,-189.8 228.1,-89.2 423.4,-148.6 360.6,-305.3 C 2032.2,30.4 1851.7,0 1725.2,0 1647.8,0 1590.6,11.3 1590.6,11.3"/><path id="path22430" d="m 0,126.1 v 0 145.5 H 163.2 V 790.2 H 326.5 V 271.7 H 489.7 V 126.1 Z m 948.8,0 -110,371.2 L 726.9,126.1 H 558 l 219.2,664.1 h 121.2 l 220.2,-664.1 z"/><path id="path22432" d="m 1590.6,11.3 c -86.9,17.3 -157,53.4 -213.5,101.4 -16.3,13.8 -31.4,28.6 -45.5,44.2 -52.3,57.9 -106.4,145.5 -137.6,228.2 -52.4,138.7 -69.7,269 -147.4,342.6 -58,54.1 13.4,77.6 60.3,56.5 55.5,-20.7 107,-63.2 176.8,-168.5 59.2,-91 142.8,-258.1 304.8,-330.7 137.7,-62.5 250.5,-33.8 224,45 11.6,-23.5 19.4,-47.1 22,-70.6 10.3,-130.1 -101.3,-248 -238.5,-248 -1.7,-0.1 -3.5,-0.1 -5.4,-0.1"/><path id="path22434" d="m 1743.9,496.1 c -170.7,76.6 -153.2,158.8 -138.1,189.8 3.4,6.9 6.2,11.1 6.5,11.5 171.9,264.6 512.4,303.7 513.5,302.7 C 1954.1,844.5 1778.4,570.3 1837.5,460 c -30.2,11.7 -61.6,23.6 -93.6,36.1"/><path id="path22436" d="m 1743.9,496.1 c -170.7,76.6 -153.2,158.8 -138.1,189.8 3.4,6.9 6.2,11.1 6.5,11.5 171.9,264.6 512.4,303.7 513.5,302.7 C 1954.1,844.5 1778.4,570.3 1837.5,460 c -30.2,11.7 -61.6,23.6 -93.6,36.1"/><path id="path22438" d="m 1590.6,11.3 c 139.6,-3.2 254.4,116.1 243.9,248 -2.7,23.5 -10.5,47.1 -22,70.6 -27.3,55.2 -75.9,109.5 -130.3,158.4 -113.6,99.6 -93,167.6 -76.5,197.6 -15,-30.8 -32.6,-113.2 138.1,-189.8 228.1,-89.2 423.4,-148.6 360.6,-305.3 C 2032.2,30.4 1851.7,0 1725.2,0 1647.8,0 1590.6,11.3 1590.6,11.3"/><path id="path22440" d="m 0,126.1 v 0 145.5 H 163.2 V 790.2 H 326.5 V 271.7 H 489.7 V 126.1 Z m 948.8,0 -110,371.2 L 726.9,126.1 H 558 l 219.2,664.1 h 121.2 l 220.2,-664.1 z"/><path id="path22442" d="m 1590.6,11.3 c -86.9,17.3 -157,53.4 -213.5,101.4 -16.3,13.8 -31.4,28.6 -45.5,44.2 -52.3,57.9 -106.4,145.5 -137.6,228.2 -52.4,138.7 -69.7,269 -147.4,342.6 -58,54.1 13.4,77.6 60.3,56.5 55.5,-20.7 107,-63.2 176.8,-168.5 59.2,-91 142.8,-258.1 304.8,-330.7 137.7,-62.5 250.5,-33.8 224,45 11.6,-23.5 19.4,-47.1 22,-70.6 10.3,-130.1 -101.3,-248 -238.5,-248 -1.7,-0.1 -3.5,-0.1 -5.4,-0.1"/><path id="path22444" d="m 1743.9,496.1 c -170.7,76.6 -153.2,158.8 -138.1,189.8 3.4,6.9 6.2,11.1 6.5,11.5 171.9,264.6 512.4,303.7 513.5,302.7 C 1954.1,844.5 1778.4,570.3 1837.5,460 c -30.2,11.7 -61.6,23.6 -93.6,36.1"/><path id="path22446" d="m 1743.9,496.1 c -170.7,76.6 -153.2,158.8 -138.1,189.8 3.4,6.9 6.2,11.1 6.5,11.5 171.9,264.6 512.4,303.7 513.5,302.7 C 1954.1,844.5 1778.4,570.3 1837.5,460 c -30.2,11.7 -61.6,23.6 -93.6,36.1"/><path id="path22448" d="m 1590.6,11.3 c 139.6,-3.2 254.4,116.1 243.9,248 -2.7,23.5 -10.5,47.1 -22,70.6 -27.3,55.2 -75.9,109.5 -130.3,158.4 -113.6,99.6 -93,167.6 -76.5,197.6 -15,-30.8 -32.6,-113.2 138.1,-189.8 228.1,-89.2 423.4,-148.6 360.6,-305.3 C 2032.2,30.4 1851.7,0 1725.2,0 1647.8,0 1590.6,11.3 1590.6,11.3"/><path id="path22450" d="m 0,126.1 v 0 145.5 H 163.2 V 790.2 H 326.5 V 271.7 H 489.7 V 126.1 Z m 948.8,0 -110,371.2 L 726.9,126.1 H 558 l 219.2,664.1 h 121.2 l 220.2,-664.1 z"/><path id="path22452" d="m 1590.6,11.3 c -86.9,17.3 -157,53.4 -213.5,101.4 -16.3,13.8 -31.4,28.6 -45.5,44.2 -52.3,57.9 -106.4,145.5 -137.6,228.2 -52.4,138.7 -69.7,269 -147.4,342.6 -58,54.1 13.4,77.6 60.3,56.5 55.5,-20.7 107,-63.2 176.8,-168.5 59.2,-91 142.8,-258.1 304.8,-330.7 137.7,-62.5 250.5,-33.8 224,45 11.6,-23.5 19.4,-47.1 22,-70.6 10.3,-130.1 -101.3,-248 -238.5,-248 -1.7,-0.1 -3.5,-0.1 -5.4,-0.1"/><path id="SVGID_1_-4" d="m 2666.3,324.7 h -97.5 c -14.2,-68.1 -57.6,-113.8 -127.6,-113.8 -38.1,0 -70,14 -93.1,40.1 -31.9,35.4 -38.1,75.6 -38.1,207.1 0,131.5 6.2,171.6 38.1,207.1 23,26.1 54.9,40.1 93.1,40.1 70,0 113.4,-45.7 127.6,-113.8 h 97.5 c -22.2,131.5 -109.9,204.3 -225.1,204.3 -69.1,0 -122.3,-24.3 -163.1,-67.2 -61.2,-65.3 -63.8,-131.5 -63.8,-270.5 0,-139 2.7,-205.2 63.8,-270.5 40.8,-42.9 93.9,-67.2 163.1,-67.2 116.1,0 202.9,72.7 225.1,204.3 z M 3193.6,126 v 440.3 c 0,137.1 -98.4,229.5 -226.9,229.5 -128.5,0 -226,-92.3 -226,-229.5 V 126 h 95.7 v 435.6 c 0,88.6 51.4,143.6 130.3,143.6 78.9,0 131.2,-55 131.2,-143.6 V 126 Z m 208.3,0 v 573.7 h 304 v 90.5 H 3306.2 V 126 Z m 669.9,0 v 90.5 h -173.7 v 573.7 h -95.7 V 216.5 H 3628.7 V 126 Z m 525.6,0 v 440.3 c 0,137.1 -98.4,229.5 -226.9,229.5 -128.5,0 -226,-92.3 -226,-229.5 V 126 h 95.7 v 435.6 c 0,88.6 51.4,143.6 130.3,143.6 78.9,0 131.2,-55 131.2,-143.6 V 126 Z m 111.7,0 h 244.6 c 119.6,0 195.9,81.2 195.9,194 0,95.1 -54.9,155.8 -125.8,176.3 L 5169,790.1 H 5057.3 L 4924.4,510.3 h -119.6 v 279.8 h -95.7 z m 95.7,90.5 v 208 h 141.8 c 63.8,0 107.2,-38.2 107.2,-103.5 0,-65.3 -43.4,-104.5 -107.2,-104.5 z m 724,-90.5 231.3,664.1 h -101.9 l -43.4,-133.4 h -249 l -43.4,133.4 H 5220.5 L 5451.7,126 Z m -39,150.2 -96.6,294.8 h 194.1 z m 429,-150.2 v 573.7 h 304 v 90.5 H 5823.1 V 126 Z"/><path id="SVGID_00000004517832585976790420000009681570420941840773_-88" d="m 1743.9,496.1 c -170.7,76.6 -153.2,158.8 -138.1,189.8 3.4,6.9 6.2,11.1 6.5,11.5 171.9,264.6 512.4,303.7 513.5,302.7 C 1954.1,844.5 1778.4,570.3 1837.5,460 c -30.2,11.7 -61.6,23.6 -93.6,36.1"/><path id="SVGID_00000026122884953094692770000004664168062016065937_-2" d="m 1590.6,11.3 c 139.6,-3.2 254.4,116.1 243.9,248 -2.7,23.5 -10.5,47.1 -22,70.6 -27.3,55.2 -75.9,109.5 -130.3,158.4 -113.6,99.6 -93,167.6 -76.5,197.6 -15,-30.8 -32.6,-113.2 138.1,-189.8 228.1,-89.2 423.4,-148.6 360.6,-305.3 C 2032.2,30.4 1851.7,0 1725.2,0 1647.8,0 1590.6,11.3 1590.6,11.3"/><path id="SVGID_00000043459113457493937310000015151287445425353890_-60" d="m 1590.6,11.3 c -86.9,17.3 -157,53.4 -213.5,101.4 -16.3,13.8 -31.4,28.6 -45.5,44.2 -52.3,57.9 -106.4,145.5 -137.6,228.2 -52.4,138.7 -69.7,269 -147.4,342.6 -58,54.1 13.4,77.6 60.3,56.5 55.5,-20.7 107,-63.2 176.8,-168.5 59.2,-91 142.8,-258.1 304.8,-330.7 137.7,-62.5 250.5,-33.8 224,45 11.6,-23.5 19.4,-47.1 22,-70.6 10.3,-130.1 -101.3,-248 -238.5,-248 -1.7,-0.1 -3.5,-0.1 -5.4,-0.1"/><path id="SVGID_00000143603414097528338740000010794203758393663144_-7" d="m 0,126.1 v 0 145.5 H 163.2 V 790.2 H 326.5 V 271.7 H 489.7 V 126.1 Z m 948.8,0 -110,371.2 L 726.9,126.1 H 558 l 219.2,664.1 h 121.2 l 220.2,-664.1 z"/><clipPath id="SVGID_00000143604327886209795450000015356285279467233666_-0-5">
		<use xlink:href="#SVGID_00000004517832585976790420000009681570420941840773_-88" style="overflow:visible" id="use1971-3-82"/>
	</clipPath><path id="path2076-1-1" d="m 1743.9,496.1 c -170.7,76.6 -153.2,158.8 -138.1,189.8 3.4,6.9 6.2,11.1 6.5,11.5 171.9,264.6 512.4,303.7 513.5,302.7 C 1954.1,844.5 1778.4,570.3 1837.5,460 c -30.2,11.7 -61.6,23.6 -93.6,36.1"/><defs id="defs1969-6-49">
		<path id="path4132-2" d="m 1743.9,496.1 c -170.7,76.6 -153.2,158.8 -138.1,189.8 3.4,6.9 6.2,11.1 6.5,11.5 171.9,264.6 512.4,303.7 513.5,302.7 C 1954.1,844.5 1778.4,570.3 1837.5,460 c -30.2,11.7 -61.6,23.6 -93.6,36.1"/>
	</defs><clipPath id="clipPath4065-8">
		<use xlink:href="#SVGID_00000004517832585976790420000009681570420941840773_-88" style="overflow:visible" id="use4063-2"/>
	</clipPath><defs id="defs1969-04">
		<path id="path2076-4" d="m 1743.9,496.1 c -170.7,76.6 -153.2,158.8 -138.1,189.8 3.4,6.9 6.2,11.1 6.5,11.5 171.9,264.6 512.4,303.7 513.5,302.7 C 1954.1,844.5 1778.4,570.3 1837.5,460 c -30.2,11.7 -61.6,23.6 -93.6,36.1"/>
	</defs><defs id="defs1988-9">
		<path id="path2088-5" d="m 1590.6,11.3 c 139.6,-3.2 254.4,116.1 243.9,248 -2.7,23.5 -10.5,47.1 -22,70.6 -27.3,55.2 -75.9,109.5 -130.3,158.4 -113.6,99.6 -93,167.6 -76.5,197.6 -15,-30.8 -32.6,-113.2 138.1,-189.8 228.1,-89.2 423.4,-148.6 360.6,-305.3 C 2032.2,30.4 1851.7,0 1725.2,0 1647.8,0 1590.6,11.3 1590.6,11.3"/>
	</defs><defs id="defs2032-7">
		<path id="path2115-2" d="m 0,126.1 v 0 145.5 H 163.2 V 790.2 H 326.5 V 271.7 H 489.7 V 126.1 Z m 948.8,0 -110,371.2 L 726.9,126.1 H 558 l 219.2,664.1 h 121.2 l 220.2,-664.1 z"/>
	</defs><defs id="defs2011-5">
		<path id="path2102-1" d="m 1590.6,11.3 c -86.9,17.3 -157,53.4 -213.5,101.4 -16.3,13.8 -31.4,28.6 -45.5,44.2 -52.3,57.9 -106.4,145.5 -137.6,228.2 -52.4,138.7 -69.7,269 -147.4,342.6 -58,54.1 13.4,77.6 60.3,56.5 55.5,-20.7 107,-63.2 176.8,-168.5 59.2,-91 142.8,-258.1 304.8,-330.7 137.7,-62.5 250.5,-33.8 224,45 11.6,-23.5 19.4,-47.1 22,-70.6 10.3,-130.1 -101.3,-248 -238.5,-248 -1.7,-0.1 -3.5,-0.1 -5.4,-0.1"/>
	</defs><path id="path801-4" d="m 1743.9,496.1 c -170.7,76.6 -153.2,158.8 -138.1,189.8 3.4,6.9 6.2,11.1 6.5,11.5 171.9,264.6 512.4,303.7 513.5,302.7 C 1954.1,844.5 1778.4,570.3 1837.5,460 c -30.2,11.7 -61.6,23.6 -93.6,36.1"/><path id="path803-70" d="m 1743.9,496.1 c -170.7,76.6 -153.2,158.8 -138.1,189.8 3.4,6.9 6.2,11.1 6.5,11.5 171.9,264.6 512.4,303.7 513.5,302.7 C 1954.1,844.5 1778.4,570.3 1837.5,460 c -30.2,11.7 -61.6,23.6 -93.6,36.1"/><path id="path805-32" d="m 1590.6,11.3 c 139.6,-3.2 254.4,116.1 243.9,248 -2.7,23.5 -10.5,47.1 -22,70.6 -27.3,55.2 -75.9,109.5 -130.3,158.4 -113.6,99.6 -93,167.6 -76.5,197.6 -15,-30.8 -32.6,-113.2 138.1,-189.8 228.1,-89.2 423.4,-148.6 360.6,-305.3 C 2032.2,30.4 1851.7,0 1725.2,0 1647.8,0 1590.6,11.3 1590.6,11.3"/><path id="path807-05" d="m 0,126.1 v 0 145.5 H 163.2 V 790.2 H 326.5 V 271.7 H 489.7 V 126.1 Z m 948.8,0 -110,371.2 L 726.9,126.1 H 558 l 219.2,664.1 h 121.2 l 220.2,-664.1 z"/><path id="path809-66" d="m 1590.6,11.3 c -86.9,17.3 -157,53.4 -213.5,101.4 -16.3,13.8 -31.4,28.6 -45.5,44.2 -52.3,57.9 -106.4,145.5 -137.6,228.2 -52.4,138.7 -69.7,269 -147.4,342.6 -58,54.1 13.4,77.6 60.3,56.5 55.5,-20.7 107,-63.2 176.8,-168.5 59.2,-91 142.8,-258.1 304.8,-330.7 137.7,-62.5 250.5,-33.8 224,45 11.6,-23.5 19.4,-47.1 22,-70.6 10.3,-130.1 -101.3,-248 -238.5,-248 -1.7,-0.1 -3.5,-0.1 -5.4,-0.1"/><path id="SVGID_1_-0-39" d="m 2666.3,324.7 h -97.5 c -14.2,-68.1 -57.6,-113.8 -127.6,-113.8 -38.1,0 -70,14 -93.1,40.1 -31.9,35.4 -38.1,75.6 -38.1,207.1 0,131.5 6.2,171.6 38.1,207.1 23,26.1 54.9,40.1 93.1,40.1 70,0 113.4,-45.7 127.6,-113.8 h 97.5 c -22.2,131.5 -109.9,204.3 -225.1,204.3 -69.1,0 -122.3,-24.3 -163.1,-67.2 -61.2,-65.3 -63.8,-131.5 -63.8,-270.5 0,-139 2.7,-205.2 63.8,-270.5 40.8,-42.9 93.9,-67.2 163.1,-67.2 116.1,0 202.9,72.7 225.1,204.3 z M 3193.6,126 v 440.3 c 0,137.1 -98.4,229.5 -226.9,229.5 -128.5,0 -226,-92.3 -226,-229.5 V 126 h 95.7 v 435.6 c 0,88.6 51.4,143.6 130.3,143.6 78.9,0 131.2,-55 131.2,-143.6 V 126 Z m 208.3,0 v 573.7 h 304 v 90.5 H 3306.2 V 126 Z m 669.9,0 v 90.5 h -173.7 v 573.7 h -95.7 V 216.5 H 3628.7 V 126 Z m 525.6,0 v 440.3 c 0,137.1 -98.4,229.5 -226.9,229.5 -128.5,0 -226,-92.3 -226,-229.5 V 126 h 95.7 v 435.6 c 0,88.6 51.4,143.6 130.3,143.6 78.9,0 131.2,-55 131.2,-143.6 V 126 Z m 111.7,0 h 244.6 c 119.6,0 195.9,81.2 195.9,194 0,95.1 -54.9,155.8 -125.8,176.3 L 5169,790.1 H 5057.3 L 4924.4,510.3 h -119.6 v 279.8 h -95.7 z m 95.7,90.5 v 208 h 141.8 c 63.8,0 107.2,-38.2 107.2,-103.5 0,-65.3 -43.4,-104.5 -107.2,-104.5 z m 724,-90.5 231.3,664.1 h -101.9 l -43.4,-133.4 h -249 l -43.4,133.4 H 5220.5 L 5451.7,126 Z m -39,150.2 -96.6,294.8 h 194.1 z m 429,-150.2 v 573.7 h 304 v 90.5 H 5823.1 V 126 Z"/><path id="SVGID_00000004517832585976790420000009681570420941840773_-8-0" d="m 1743.9,496.1 c -170.7,76.6 -153.2,158.8 -138.1,189.8 3.4,6.9 6.2,11.1 6.5,11.5 171.9,264.6 512.4,303.7 513.5,302.7 C 1954.1,844.5 1778.4,570.3 1837.5,460 c -30.2,11.7 -61.6,23.6 -93.6,36.1"/><path id="SVGID_00000026122884953094692770000004664168062016065937_-0-0" d="m 1590.6,11.3 c 139.6,-3.2 254.4,116.1 243.9,248 -2.7,23.5 -10.5,47.1 -22,70.6 -27.3,55.2 -75.9,109.5 -130.3,158.4 -113.6,99.6 -93,167.6 -76.5,197.6 -15,-30.8 -32.6,-113.2 138.1,-189.8 228.1,-89.2 423.4,-148.6 360.6,-305.3 C 2032.2,30.4 1851.7,0 1725.2,0 1647.8,0 1590.6,11.3 1590.6,11.3"/><path id="SVGID_00000043459113457493937310000015151287445425353890_-6-9" d="m 1590.6,11.3 c -86.9,17.3 -157,53.4 -213.5,101.4 -16.3,13.8 -31.4,28.6 -45.5,44.2 -52.3,57.9 -106.4,145.5 -137.6,228.2 -52.4,138.7 -69.7,269 -147.4,342.6 -58,54.1 13.4,77.6 60.3,56.5 55.5,-20.7 107,-63.2 176.8,-168.5 59.2,-91 142.8,-258.1 304.8,-330.7 137.7,-62.5 250.5,-33.8 224,45 11.6,-23.5 19.4,-47.1 22,-70.6 10.3,-130.1 -101.3,-248 -238.5,-248 -1.7,-0.1 -3.5,-0.1 -5.4,-0.1"/><path id="SVGID_00000143603414097528338740000010794203758393663144_-4-1" d="m 0,126.1 v 0 145.5 H 163.2 V 790.2 H 326.5 V 271.7 H 489.7 V 126.1 Z m 948.8,0 -110,371.2 L 726.9,126.1 H 558 l 219.2,664.1 h 121.2 l 220.2,-664.1 z"/><clipPath id="SVGID_00000143604327886209795450000015356285279467233666_-0-0-9">
		<use xlink:href="#SVGID_00000004517832585976790420000009681570420941840773_-8-0" style="overflow:visible" id="use1971-3-1-25"/>
	</clipPath><path id="path2076-1-9-5" d="m 1743.9,496.1 c -170.7,76.6 -153.2,158.8 -138.1,189.8 3.4,6.9 6.2,11.1 6.5,11.5 171.9,264.6 512.4,303.7 513.5,302.7 C 1954.1,844.5 1778.4,570.3 1837.5,460 c -30.2,11.7 -61.6,23.6 -93.6,36.1"/><defs id="defs1969-6-1-1">
		<path id="path4132-3-5" d="m 1743.9,496.1 c -170.7,76.6 -153.2,158.8 -138.1,189.8 3.4,6.9 6.2,11.1 6.5,11.5 171.9,264.6 512.4,303.7 513.5,302.7 C 1954.1,844.5 1778.4,570.3 1837.5,460 c -30.2,11.7 -61.6,23.6 -93.6,36.1"/>
	</defs><clipPath id="clipPath4065-1-5">
		<use xlink:href="#SVGID_00000004517832585976790420000009681570420941840773_-8-0" style="overflow:visible" id="use4063-1-6"/>
	</clipPath><defs id="defs1969-7-5">
		<path id="path2076-6-0" d="m 1743.9,496.1 c -170.7,76.6 -153.2,158.8 -138.1,189.8 3.4,6.9 6.2,11.1 6.5,11.5 171.9,264.6 512.4,303.7 513.5,302.7 C 1954.1,844.5 1778.4,570.3 1837.5,460 c -30.2,11.7 -61.6,23.6 -93.6,36.1"/>
	</defs><defs id="defs1988-0-3">
		<path id="path2088-1-8" d="m 1590.6,11.3 c 139.6,-3.2 254.4,116.1 243.9,248 -2.7,23.5 -10.5,47.1 -22,70.6 -27.3,55.2 -75.9,109.5 -130.3,158.4 -113.6,99.6 -93,167.6 -76.5,197.6 -15,-30.8 -32.6,-113.2 138.1,-189.8 228.1,-89.2 423.4,-148.6 360.6,-305.3 C 2032.2,30.4 1851.7,0 1725.2,0 1647.8,0 1590.6,11.3 1590.6,11.3"/>
	</defs><defs id="defs2032-8-5">
		<path id="path2115-8-4" d="m 0,126.1 v 0 145.5 H 163.2 V 790.2 H 326.5 V 271.7 H 489.7 V 126.1 Z m 948.8,0 -110,371.2 L 726.9,126.1 H 558 l 219.2,664.1 h 121.2 l 220.2,-664.1 z"/>
	</defs><defs id="defs2011-3-0">
		<path id="path2102-0-0" d="m 1590.6,11.3 c -86.9,17.3 -157,53.4 -213.5,101.4 -16.3,13.8 -31.4,28.6 -45.5,44.2 -52.3,57.9 -106.4,145.5 -137.6,228.2 -52.4,138.7 -69.7,269 -147.4,342.6 -58,54.1 13.4,77.6 60.3,56.5 55.5,-20.7 107,-63.2 176.8,-168.5 59.2,-91 142.8,-258.1 304.8,-330.7 137.7,-62.5 250.5,-33.8 224,45 11.6,-23.5 19.4,-47.1 22,-70.6 10.3,-130.1 -101.3,-248 -238.5,-248 -1.7,-0.1 -3.5,-0.1 -5.4,-0.1"/>
	</defs><path id="path801-8-0" d="m 1743.9,496.1 c -170.7,76.6 -153.2,158.8 -138.1,189.8 3.4,6.9 6.2,11.1 6.5,11.5 171.9,264.6 512.4,303.7 513.5,302.7 C 1954.1,844.5 1778.4,570.3 1837.5,460 c -30.2,11.7 -61.6,23.6 -93.6,36.1"/><path id="path803-9-8" d="m 1743.9,496.1 c -170.7,76.6 -153.2,158.8 -138.1,189.8 3.4,6.9 6.2,11.1 6.5,11.5 171.9,264.6 512.4,303.7 513.5,302.7 C 1954.1,844.5 1778.4,570.3 1837.5,460 c -30.2,11.7 -61.6,23.6 -93.6,36.1"/><path id="path805-3-9" d="m 1590.6,11.3 c 139.6,-3.2 254.4,116.1 243.9,248 -2.7,23.5 -10.5,47.1 -22,70.6 -27.3,55.2 -75.9,109.5 -130.3,158.4 -113.6,99.6 -93,167.6 -76.5,197.6 -15,-30.8 -32.6,-113.2 138.1,-189.8 228.1,-89.2 423.4,-148.6 360.6,-305.3 C 2032.2,30.4 1851.7,0 1725.2,0 1647.8,0 1590.6,11.3 1590.6,11.3"/><path id="path807-0-9" d="m 0,126.1 v 0 145.5 H 163.2 V 790.2 H 326.5 V 271.7 H 489.7 V 126.1 Z m 948.8,0 -110,371.2 L 726.9,126.1 H 558 l 219.2,664.1 h 121.2 l 220.2,-664.1 z"/><path id="path809-3-63" d="m 1590.6,11.3 c -86.9,17.3 -157,53.4 -213.5,101.4 -16.3,13.8 -31.4,28.6 -45.5,44.2 -52.3,57.9 -106.4,145.5 -137.6,228.2 -52.4,138.7 -69.7,269 -147.4,342.6 -58,54.1 13.4,77.6 60.3,56.5 55.5,-20.7 107,-63.2 176.8,-168.5 59.2,-91 142.8,-258.1 304.8,-330.7 137.7,-62.5 250.5,-33.8 224,45 11.6,-23.5 19.4,-47.1 22,-70.6 10.3,-130.1 -101.3,-248 -238.5,-248 -1.7,-0.1 -3.5,-0.1 -5.4,-0.1"/><path id="path7700-7" d="m 1743.9,496.1 c -170.7,76.6 -153.2,158.8 -138.1,189.8 3.4,6.9 6.2,11.1 6.5,11.5 171.9,264.6 512.4,303.7 513.5,302.7 C 1954.1,844.5 1778.4,570.3 1837.5,460 c -30.2,11.7 -61.6,23.6 -93.6,36.1"/><path id="path7702-5" d="m 1743.9,496.1 c -170.7,76.6 -153.2,158.8 -138.1,189.8 3.4,6.9 6.2,11.1 6.5,11.5 171.9,264.6 512.4,303.7 513.5,302.7 C 1954.1,844.5 1778.4,570.3 1837.5,460 c -30.2,11.7 -61.6,23.6 -93.6,36.1"/><path id="path7704-4" d="m 1590.6,11.3 c 139.6,-3.2 254.4,116.1 243.9,248 -2.7,23.5 -10.5,47.1 -22,70.6 -27.3,55.2 -75.9,109.5 -130.3,158.4 -113.6,99.6 -93,167.6 -76.5,197.6 -15,-30.8 -32.6,-113.2 138.1,-189.8 228.1,-89.2 423.4,-148.6 360.6,-305.3 C 2032.2,30.4 1851.7,0 1725.2,0 1647.8,0 1590.6,11.3 1590.6,11.3"/><path id="path7706-6" d="m 0,126.1 v 0 145.5 H 163.2 V 790.2 H 326.5 V 271.7 H 489.7 V 126.1 Z m 948.8,0 -110,371.2 L 726.9,126.1 H 558 l 219.2,664.1 h 121.2 l 220.2,-664.1 z"/><path id="path7708-2" d="m 1590.6,11.3 c -86.9,17.3 -157,53.4 -213.5,101.4 -16.3,13.8 -31.4,28.6 -45.5,44.2 -52.3,57.9 -106.4,145.5 -137.6,228.2 -52.4,138.7 -69.7,269 -147.4,342.6 -58,54.1 13.4,77.6 60.3,56.5 55.5,-20.7 107,-63.2 176.8,-168.5 59.2,-91 142.8,-258.1 304.8,-330.7 137.7,-62.5 250.5,-33.8 224,45 11.6,-23.5 19.4,-47.1 22,-70.6 10.3,-130.1 -101.3,-248 -238.5,-248 -1.7,-0.1 -3.5,-0.1 -5.4,-0.1"/><path id="SVGID_1_-7-4" d="m 2666.3,324.7 h -97.5 c -14.2,-68.1 -57.6,-113.8 -127.6,-113.8 -38.1,0 -70,14 -93.1,40.1 -31.9,35.4 -38.1,75.6 -38.1,207.1 0,131.5 6.2,171.6 38.1,207.1 23,26.1 54.9,40.1 93.1,40.1 70,0 113.4,-45.7 127.6,-113.8 h 97.5 c -22.2,131.5 -109.9,204.3 -225.1,204.3 -69.1,0 -122.3,-24.3 -163.1,-67.2 -61.2,-65.3 -63.8,-131.5 -63.8,-270.5 0,-139 2.7,-205.2 63.8,-270.5 40.8,-42.9 93.9,-67.2 163.1,-67.2 116.1,0 202.9,72.7 225.1,204.3 z M 3193.6,126 v 440.3 c 0,137.1 -98.4,229.5 -226.9,229.5 -128.5,0 -226,-92.3 -226,-229.5 V 126 h 95.7 v 435.6 c 0,88.6 51.4,143.6 130.3,143.6 78.9,0 131.2,-55 131.2,-143.6 V 126 Z m 208.3,0 v 573.7 h 304 v 90.5 H 3306.2 V 126 Z m 669.9,0 v 90.5 h -173.7 v 573.7 h -95.7 V 216.5 H 3628.7 V 126 Z m 525.6,0 v 440.3 c 0,137.1 -98.4,229.5 -226.9,229.5 -128.5,0 -226,-92.3 -226,-229.5 V 126 h 95.7 v 435.6 c 0,88.6 51.4,143.6 130.3,143.6 78.9,0 131.2,-55 131.2,-143.6 V 126 Z m 111.7,0 h 244.6 c 119.6,0 195.9,81.2 195.9,194 0,95.1 -54.9,155.8 -125.8,176.3 L 5169,790.1 H 5057.3 L 4924.4,510.3 h -119.6 v 279.8 h -95.7 z m 95.7,90.5 v 208 h 141.8 c 63.8,0 107.2,-38.2 107.2,-103.5 0,-65.3 -43.4,-104.5 -107.2,-104.5 z m 724,-90.5 231.3,664.1 h -101.9 l -43.4,-133.4 h -249 l -43.4,133.4 H 5220.5 L 5451.7,126 Z m -39,150.2 -96.6,294.8 h 194.1 z m 429,-150.2 v 573.7 h 304 v 90.5 H 5823.1 V 126 Z"/><path id="SVGID_00000004517832585976790420000009681570420941840773_-9-40" d="m 1743.9,496.1 c -170.7,76.6 -153.2,158.8 -138.1,189.8 3.4,6.9 6.2,11.1 6.5,11.5 171.9,264.6 512.4,303.7 513.5,302.7 C 1954.1,844.5 1778.4,570.3 1837.5,460 c -30.2,11.7 -61.6,23.6 -93.6,36.1"/><path id="SVGID_00000026122884953094692770000004664168062016065937_-3-9" d="m 1590.6,11.3 c 139.6,-3.2 254.4,116.1 243.9,248 -2.7,23.5 -10.5,47.1 -22,70.6 -27.3,55.2 -75.9,109.5 -130.3,158.4 -113.6,99.6 -93,167.6 -76.5,197.6 -15,-30.8 -32.6,-113.2 138.1,-189.8 228.1,-89.2 423.4,-148.6 360.6,-305.3 C 2032.2,30.4 1851.7,0 1725.2,0 1647.8,0 1590.6,11.3 1590.6,11.3"/><path id="SVGID_00000043459113457493937310000015151287445425353890_-0-9" d="m 1590.6,11.3 c -86.9,17.3 -157,53.4 -213.5,101.4 -16.3,13.8 -31.4,28.6 -45.5,44.2 -52.3,57.9 -106.4,145.5 -137.6,228.2 -52.4,138.7 -69.7,269 -147.4,342.6 -58,54.1 13.4,77.6 60.3,56.5 55.5,-20.7 107,-63.2 176.8,-168.5 59.2,-91 142.8,-258.1 304.8,-330.7 137.7,-62.5 250.5,-33.8 224,45 11.6,-23.5 19.4,-47.1 22,-70.6 10.3,-130.1 -101.3,-248 -238.5,-248 -1.7,-0.1 -3.5,-0.1 -5.4,-0.1"/><path id="SVGID_00000143603414097528338740000010794203758393663144_-0-1" d="m 0,126.1 v 0 145.5 H 163.2 V 790.2 H 326.5 V 271.7 H 489.7 V 126.1 Z m 948.8,0 -110,371.2 L 726.9,126.1 H 558 l 219.2,664.1 h 121.2 l 220.2,-664.1 z"/><clipPath id="SVGID_00000143604327886209795450000015356285279467233666_-0-9-0">
		<use xlink:href="#SVGID_00000004517832585976790420000009681570420941840773_-9-40" style="overflow:visible" id="use1971-3-8-7"/>
	</clipPath><path id="path2076-1-6-4" d="m 1743.9,496.1 c -170.7,76.6 -153.2,158.8 -138.1,189.8 3.4,6.9 6.2,11.1 6.5,11.5 171.9,264.6 512.4,303.7 513.5,302.7 C 1954.1,844.5 1778.4,570.3 1837.5,460 c -30.2,11.7 -61.6,23.6 -93.6,36.1"/><defs id="defs1969-6-8-1">
		<path id="path4132-5-58" d="m 1743.9,496.1 c -170.7,76.6 -153.2,158.8 -138.1,189.8 3.4,6.9 6.2,11.1 6.5,11.5 171.9,264.6 512.4,303.7 513.5,302.7 C 1954.1,844.5 1778.4,570.3 1837.5,460 c -30.2,11.7 -61.6,23.6 -93.6,36.1"/>
	</defs><clipPath id="clipPath4065-6-2">
		<use xlink:href="#SVGID_00000004517832585976790420000009681570420941840773_-9-40" style="overflow:visible" id="use4063-5-3"/>
	</clipPath><defs id="defs1969-3-5">
		<path id="path2076-7-4" d="m 1743.9,496.1 c -170.7,76.6 -153.2,158.8 -138.1,189.8 3.4,6.9 6.2,11.1 6.5,11.5 171.9,264.6 512.4,303.7 513.5,302.7 C 1954.1,844.5 1778.4,570.3 1837.5,460 c -30.2,11.7 -61.6,23.6 -93.6,36.1"/>
	</defs><defs id="defs1988-7-2">
		<path id="path2088-7-3" d="m 1590.6,11.3 c 139.6,-3.2 254.4,116.1 243.9,248 -2.7,23.5 -10.5,47.1 -22,70.6 -27.3,55.2 -75.9,109.5 -130.3,158.4 -113.6,99.6 -93,167.6 -76.5,197.6 -15,-30.8 -32.6,-113.2 138.1,-189.8 228.1,-89.2 423.4,-148.6 360.6,-305.3 C 2032.2,30.4 1851.7,0 1725.2,0 1647.8,0 1590.6,11.3 1590.6,11.3"/>
	</defs><defs id="defs2032-1-0">
		<path id="path2115-0-77" d="m 0,126.1 v 0 145.5 H 163.2 V 790.2 H 326.5 V 271.7 H 489.7 V 126.1 Z m 948.8,0 -110,371.2 L 726.9,126.1 H 558 l 219.2,664.1 h 121.2 l 220.2,-664.1 z"/>
	</defs><defs id="defs2011-1-5">
		<path id="path2102-05-9" d="m 1590.6,11.3 c -86.9,17.3 -157,53.4 -213.5,101.4 -16.3,13.8 -31.4,28.6 -45.5,44.2 -52.3,57.9 -106.4,145.5 -137.6,228.2 -52.4,138.7 -69.7,269 -147.4,342.6 -58,54.1 13.4,77.6 60.3,56.5 55.5,-20.7 107,-63.2 176.8,-168.5 59.2,-91 142.8,-258.1 304.8,-330.7 137.7,-62.5 250.5,-33.8 224,45 11.6,-23.5 19.4,-47.1 22,-70.6 10.3,-130.1 -101.3,-248 -238.5,-248 -1.7,-0.1 -3.5,-0.1 -5.4,-0.1"/>
	</defs><path id="path801-2-5" d="m 1743.9,496.1 c -170.7,76.6 -153.2,158.8 -138.1,189.8 3.4,6.9 6.2,11.1 6.5,11.5 171.9,264.6 512.4,303.7 513.5,302.7 C 1954.1,844.5 1778.4,570.3 1837.5,460 c -30.2,11.7 -61.6,23.6 -93.6,36.1"/><path id="path803-96-1" d="m 1743.9,496.1 c -170.7,76.6 -153.2,158.8 -138.1,189.8 3.4,6.9 6.2,11.1 6.5,11.5 171.9,264.6 512.4,303.7 513.5,302.7 C 1954.1,844.5 1778.4,570.3 1837.5,460 c -30.2,11.7 -61.6,23.6 -93.6,36.1"/><path id="path805-35-5" d="m 1590.6,11.3 c 139.6,-3.2 254.4,116.1 243.9,248 -2.7,23.5 -10.5,47.1 -22,70.6 -27.3,55.2 -75.9,109.5 -130.3,158.4 -113.6,99.6 -93,167.6 -76.5,197.6 -15,-30.8 -32.6,-113.2 138.1,-189.8 228.1,-89.2 423.4,-148.6 360.6,-305.3 C 2032.2,30.4 1851.7,0 1725.2,0 1647.8,0 1590.6,11.3 1590.6,11.3"/><path id="path807-2-8" d="m 0,126.1 v 0 145.5 H 163.2 V 790.2 H 326.5 V 271.7 H 489.7 V 126.1 Z m 948.8,0 -110,371.2 L 726.9,126.1 H 558 l 219.2,664.1 h 121.2 l 220.2,-664.1 z"/><path id="path809-1-0" d="m 1590.6,11.3 c -86.9,17.3 -157,53.4 -213.5,101.4 -16.3,13.8 -31.4,28.6 -45.5,44.2 -52.3,57.9 -106.4,145.5 -137.6,228.2 -52.4,138.7 -69.7,269 -147.4,342.6 -58,54.1 13.4,77.6 60.3,56.5 55.5,-20.7 107,-63.2 176.8,-168.5 59.2,-91 142.8,-258.1 304.8,-330.7 137.7,-62.5 250.5,-33.8 224,45 11.6,-23.5 19.4,-47.1 22,-70.6 10.3,-130.1 -101.3,-248 -238.5,-248 -1.7,-0.1 -3.5,-0.1 -5.4,-0.1"/><path id="path18570-2" d="m 1743.9,496.1 c -170.7,76.6 -153.2,158.8 -138.1,189.8 3.4,6.9 6.2,11.1 6.5,11.5 171.9,264.6 512.4,303.7 513.5,302.7 C 1954.1,844.5 1778.4,570.3 1837.5,460 c -30.2,11.7 -61.6,23.6 -93.6,36.1"/><path id="path18572-8" d="m 1743.9,496.1 c -170.7,76.6 -153.2,158.8 -138.1,189.8 3.4,6.9 6.2,11.1 6.5,11.5 171.9,264.6 512.4,303.7 513.5,302.7 C 1954.1,844.5 1778.4,570.3 1837.5,460 c -30.2,11.7 -61.6,23.6 -93.6,36.1"/><path id="path18574-2" d="m 1590.6,11.3 c 139.6,-3.2 254.4,116.1 243.9,248 -2.7,23.5 -10.5,47.1 -22,70.6 -27.3,55.2 -75.9,109.5 -130.3,158.4 -113.6,99.6 -93,167.6 -76.5,197.6 -15,-30.8 -32.6,-113.2 138.1,-189.8 228.1,-89.2 423.4,-148.6 360.6,-305.3 C 2032.2,30.4 1851.7,0 1725.2,0 1647.8,0 1590.6,11.3 1590.6,11.3"/><path id="path18576-4" d="m 0,126.1 v 0 145.5 H 163.2 V 790.2 H 326.5 V 271.7 H 489.7 V 126.1 Z m 948.8,0 -110,371.2 L 726.9,126.1 H 558 l 219.2,664.1 h 121.2 l 220.2,-664.1 z"/><path id="path18578-2" d="m 1590.6,11.3 c -86.9,17.3 -157,53.4 -213.5,101.4 -16.3,13.8 -31.4,28.6 -45.5,44.2 -52.3,57.9 -106.4,145.5 -137.6,228.2 -52.4,138.7 -69.7,269 -147.4,342.6 -58,54.1 13.4,77.6 60.3,56.5 55.5,-20.7 107,-63.2 176.8,-168.5 59.2,-91 142.8,-258.1 304.8,-330.7 137.7,-62.5 250.5,-33.8 224,45 11.6,-23.5 19.4,-47.1 22,-70.6 10.3,-130.1 -101.3,-248 -238.5,-248 -1.7,-0.1 -3.5,-0.1 -5.4,-0.1"/><path id="path43039" d="m 1743.9,496.1 c -170.7,76.6 -153.2,158.8 -138.1,189.8 3.4,6.9 6.2,11.1 6.5,11.5 171.9,264.6 512.4,303.7 513.5,302.7 C 1954.1,844.5 1778.4,570.3 1837.5,460 c -30.2,11.7 -61.6,23.6 -93.6,36.1"/><path id="path43041" d="m 1743.9,496.1 c -170.7,76.6 -153.2,158.8 -138.1,189.8 3.4,6.9 6.2,11.1 6.5,11.5 171.9,264.6 512.4,303.7 513.5,302.7 C 1954.1,844.5 1778.4,570.3 1837.5,460 c -30.2,11.7 -61.6,23.6 -93.6,36.1"/><path id="path43043" d="m 1590.6,11.3 c 139.6,-3.2 254.4,116.1 243.9,248 -2.7,23.5 -10.5,47.1 -22,70.6 -27.3,55.2 -75.9,109.5 -130.3,158.4 -113.6,99.6 -93,167.6 -76.5,197.6 -15,-30.8 -32.6,-113.2 138.1,-189.8 228.1,-89.2 423.4,-148.6 360.6,-305.3 C 2032.2,30.4 1851.7,0 1725.2,0 1647.8,0 1590.6,11.3 1590.6,11.3"/><path id="path43045" d="m 0,126.1 v 0 145.5 H 163.2 V 790.2 H 326.5 V 271.7 H 489.7 V 126.1 Z m 948.8,0 -110,371.2 L 726.9,126.1 H 558 l 219.2,664.1 h 121.2 l 220.2,-664.1 z"/><path id="path43047" d="m 1590.6,11.3 c -86.9,17.3 -157,53.4 -213.5,101.4 -16.3,13.8 -31.4,28.6 -45.5,44.2 -52.3,57.9 -106.4,145.5 -137.6,228.2 -52.4,138.7 -69.7,269 -147.4,342.6 -58,54.1 13.4,77.6 60.3,56.5 55.5,-20.7 107,-63.2 176.8,-168.5 59.2,-91 142.8,-258.1 304.8,-330.7 137.7,-62.5 250.5,-33.8 224,45 11.6,-23.5 19.4,-47.1 22,-70.6 10.3,-130.1 -101.3,-248 -238.5,-248 -1.7,-0.1 -3.5,-0.1 -5.4,-0.1"/><path id="path43049" d="m 1743.9,496.1 c -170.7,76.6 -153.2,158.8 -138.1,189.8 3.4,6.9 6.2,11.1 6.5,11.5 171.9,264.6 512.4,303.7 513.5,302.7 C 1954.1,844.5 1778.4,570.3 1837.5,460 c -30.2,11.7 -61.6,23.6 -93.6,36.1"/><path id="path43051" d="m 1743.9,496.1 c -170.7,76.6 -153.2,158.8 -138.1,189.8 3.4,6.9 6.2,11.1 6.5,11.5 171.9,264.6 512.4,303.7 513.5,302.7 C 1954.1,844.5 1778.4,570.3 1837.5,460 c -30.2,11.7 -61.6,23.6 -93.6,36.1"/><path id="path43053" d="m 1590.6,11.3 c 139.6,-3.2 254.4,116.1 243.9,248 -2.7,23.5 -10.5,47.1 -22,70.6 -27.3,55.2 -75.9,109.5 -130.3,158.4 -113.6,99.6 -93,167.6 -76.5,197.6 -15,-30.8 -32.6,-113.2 138.1,-189.8 228.1,-89.2 423.4,-148.6 360.6,-305.3 C 2032.2,30.4 1851.7,0 1725.2,0 1647.8,0 1590.6,11.3 1590.6,11.3"/><path id="path43055" d="m 0,126.1 v 0 145.5 H 163.2 V 790.2 H 326.5 V 271.7 H 489.7 V 126.1 Z m 948.8,0 -110,371.2 L 726.9,126.1 H 558 l 219.2,664.1 h 121.2 l 220.2,-664.1 z"/><path id="path43057" d="m 1590.6,11.3 c -86.9,17.3 -157,53.4 -213.5,101.4 -16.3,13.8 -31.4,28.6 -45.5,44.2 -52.3,57.9 -106.4,145.5 -137.6,228.2 -52.4,138.7 -69.7,269 -147.4,342.6 -58,54.1 13.4,77.6 60.3,56.5 55.5,-20.7 107,-63.2 176.8,-168.5 59.2,-91 142.8,-258.1 304.8,-330.7 137.7,-62.5 250.5,-33.8 224,45 11.6,-23.5 19.4,-47.1 22,-70.6 10.3,-130.1 -101.3,-248 -238.5,-248 -1.7,-0.1 -3.5,-0.1 -5.4,-0.1"/><path id="path43059" d="m 1743.9,496.1 c -170.7,76.6 -153.2,158.8 -138.1,189.8 3.4,6.9 6.2,11.1 6.5,11.5 171.9,264.6 512.4,303.7 513.5,302.7 C 1954.1,844.5 1778.4,570.3 1837.5,460 c -30.2,11.7 -61.6,23.6 -93.6,36.1"/><path id="path43061" d="m 1743.9,496.1 c -170.7,76.6 -153.2,158.8 -138.1,189.8 3.4,6.9 6.2,11.1 6.5,11.5 171.9,264.6 512.4,303.7 513.5,302.7 C 1954.1,844.5 1778.4,570.3 1837.5,460 c -30.2,11.7 -61.6,23.6 -93.6,36.1"/><path id="path43063" d="m 1590.6,11.3 c 139.6,-3.2 254.4,116.1 243.9,248 -2.7,23.5 -10.5,47.1 -22,70.6 -27.3,55.2 -75.9,109.5 -130.3,158.4 -113.6,99.6 -93,167.6 -76.5,197.6 -15,-30.8 -32.6,-113.2 138.1,-189.8 228.1,-89.2 423.4,-148.6 360.6,-305.3 C 2032.2,30.4 1851.7,0 1725.2,0 1647.8,0 1590.6,11.3 1590.6,11.3"/><path id="path43065" d="m 0,126.1 v 0 145.5 H 163.2 V 790.2 H 326.5 V 271.7 H 489.7 V 126.1 Z m 948.8,0 -110,371.2 L 726.9,126.1 H 558 l 219.2,664.1 h 121.2 l 220.2,-664.1 z"/><path id="path43067" d="m 1590.6,11.3 c -86.9,17.3 -157,53.4 -213.5,101.4 -16.3,13.8 -31.4,28.6 -45.5,44.2 -52.3,57.9 -106.4,145.5 -137.6,228.2 -52.4,138.7 -69.7,269 -147.4,342.6 -58,54.1 13.4,77.6 60.3,56.5 55.5,-20.7 107,-63.2 176.8,-168.5 59.2,-91 142.8,-258.1 304.8,-330.7 137.7,-62.5 250.5,-33.8 224,45 11.6,-23.5 19.4,-47.1 22,-70.6 10.3,-130.1 -101.3,-248 -238.5,-248 -1.7,-0.1 -3.5,-0.1 -5.4,-0.1"/></defs><g id="layer1" transform="translate(-1982.0923,-102.61155)"><g id="g45098-6-0" transform="matrix(0.61436603,0,0,0.61436603,2166.0571,66.528407)"><path id="use2013-8-9" style="fill:#0091c8;fill-opacity:1;stroke-width:0.199349" d="m -49.637998,88.511449 c -13.69127,12.716661 -25.33718,33.918211 -31.29663,49.325781 -10.44589,27.6497 -14.86791,49.14855 -30.357332,63.82063 -11.56224,10.78479 2.67142,15.46937 12.020892,11.26311 5.08037,-1.89484 9.99342,-4.71102 15.16795,-9.22985 4.18335,-4.6404 8.61857,-10.44639 13.51056,-17.82643 8.50084,-13.06717 19.5275,-34.00427 37.09929,-50.10344 8.26722,-8.89987 16.850388,-15.45337 28.9241078,-20.86418 C 16.80517,104.24059 35.91736,107.50156 37.0071,115.91934 42.99482,93.815647 18.5221,65.393927 -8.4991402,67.345757 -24.08054,68.471257 -39.463398,79.061129 -49.637998,88.511449 Z"/><path id="use1971-7-2" style="fill:#e42024;fill-opacity:1;stroke-width:0.199349" d="m 44.767536,157.64212 c -26.92155,7.06574 -49.7408706,28.04065 -41.0098806,41.83967 28.1547306,44.49756 80.5177966,53.37589 95.7878766,55.9055 -17.67337,-17.76402 -34.59929,-40.74632 -44.13787,-61.09658 -1.4e-4,-2.7e-4 -2.6e-4,-5.5e-4 -4e-4,-7.8e-4 -7.39621,-13.90448 -11.147306,-26.65535 -10.639726,-36.64778 z"/><path id="use1990-9-6" style="fill:#f9a613;fill-opacity:1;stroke-width:0.199349" d="m 21.066822,58.732329 c -15.4296105,0 -26.5404305,3.71246 -26.5404305,3.71246 27.8291105,-0.63791 50.4226505,21.68473 48.3294905,47.978871 -0.53824,4.6847 -2.09327,9.38924 -4.38578,14.07394 -5.44223,11.00406 -12.2111,19.6879 -23.05567,29.43606 -12.2030805,10.69919 -16.9130005,25.90012 -17.8935405,32.74132 v 0 c 2.15047002,-7.28933 13.3405305,-22.23526 32.7883905,-30.1731 45.20433,-18.45058 79.417128,-30.37327 66.898014,-61.611261 -14.393,-31.97558 -50.922824,-36.15829 -76.140474,-36.15829 z"/></g><g aria-label="1" id="text45177-5" style="font-weight:900;font-size:107.645px;font-family:'DIN Pro';-inkscape-font-specification:'DIN Pro Heavy';text-align:center;text-anchor:middle;fill:#f1f1f1;stroke-width:678.08" transform="translate(295.9069,-142.20964)"/><text xml:space="preserve" style="font-weight:500;font-size:3.90506px;font-family:'DIN Pro';-inkscape-font-specification:'DIN Pro Medium';text-align:center;text-anchor:middle;fill:#d4aa00;stroke:#000000;stroke-width:1.22994;stroke-linecap:round;stroke-linejoin:round;paint-order:stroke fill markers" x="841.37585" y="195.39452" id="text4106"><tspan id="tspan4104" style="stroke-width:1.22994" x="841.37585" y="195.39452"/></text><g aria-label="i" id="text49590" style="font-weight:900;font-size:107.645px;font-family:'DIN Pro';-inkscape-font-specification:'DIN Pro Heavy';text-align:center;text-anchor:middle;fill:#97a2ab;stroke-width:33.9039;stroke-linecap:round;stroke-linejoin:round;paint-order:stroke fill markers" transform="translate(0.38926914)"><path d="m 2246.5451,198.0688 v -55.65246 h 17.6538 v 55.65246 z m 0,-63.83348 v -13.45563 h 17.6538 v 13.45563 z" style="text-align:start;text-anchor:start" id="path73184"/></g><g aria-label="1" id="text45177-5-2" style="font-weight:900;font-size:107.645px;font-family:'DIN Pro';-inkscape-font-specification:'DIN Pro Heavy';text-align:center;text-anchor:middle;fill:#97a2ab;fill-opacity:1;stroke-width:678.08" transform="translate(1519.3677,-48.260993)"/><path id="use2034-1" d="m 1982.0923,121.42542 v 0 16.79204 h 18.8348 v 59.85116 h 18.8463 v -59.83965 h 18.8348 v -16.80355 z m 107.5737,0 -12.695,42.83986 -12.9143,-42.83986 h -19.4926 l 25.2977,76.6432 h 13.9875 l 25.4132,-76.6432 z" style="fill:#97a2ab;fill-opacity:1;stroke-width:0.115408"/><text xml:space="preserve" style="font-weight:500;font-size:3.90506px;font-family:'DIN Pro';-inkscape-font-specification:'DIN Pro Medium';text-align:center;text-anchor:middle;fill:#d4aa00;stroke:#000000;stroke-width:1.22994;stroke-linecap:round;stroke-linejoin:round;paint-order:stroke fill markers" x="2064.8367" y="289.34317" id="text4106-5"><tspan id="tspan4104-0" style="stroke-width:1.22994" x="2064.8367" y="289.34317"/></text></g><style type="text/css" id="style1945">
	
		.st0{clip-path:url(#SVGID_00000007390057207292410680000014594833281145322675_);fill:url(#SVGID_00000157298640823903213790000010888111401409626045_);}
	
		.st1{clip-path:url(#SVGID_00000005983024144573716740000016784724532432265650_);fill:url(#SVGID_00000142878313634934549560000010673053826580347800_);}
	
		.st2{clip-path:url(#SVGID_00000007411450908773892550000011950398068649316539_);fill:url(#SVGID_00000119803813235496044640000012929267509213497495_);}
	
		.st3{clip-path:url(#SVGID_00000117643940319535349970000014165591920462043831_);fill:url(#SVGID_00000054236731410441289960000017090424301116576415_);}
	
		.st4{clip-path:url(#SVGID_00000142886590596858563350000007777114443962211252_);fill:url(#SVGID_00000173841416790630443860000011599866442561749660_);}
</style><style type="text/css" id="style1945-6">
	
		.st0{clip-path:url(#SVGID_00000007390057207292410680000014594833281145322675_);fill:url(#SVGID_00000157298640823903213790000010888111401409626045_);}
	
		.st1{clip-path:url(#SVGID_00000005983024144573716740000016784724532432265650_);fill:url(#SVGID_00000142878313634934549560000010673053826580347800_);}
	
		.st2{clip-path:url(#SVGID_00000007411450908773892550000011950398068649316539_);fill:url(#SVGID_00000119803813235496044640000012929267509213497495_);}
	
		.st3{clip-path:url(#SVGID_00000117643940319535349970000014165591920462043831_);fill:url(#SVGID_00000054236731410441289960000017090424301116576415_);}
	
		.st4{clip-path:url(#SVGID_00000142886590596858563350000007777114443962211252_);fill:url(#SVGID_00000173841416790630443860000011599866442561749660_);}
</style><style type="text/css" id="style1945-62">
	
		.st0{clip-path:url(#SVGID_00000007390057207292410680000014594833281145322675_);fill:url(#SVGID_00000157298640823903213790000010888111401409626045_);}
	
		.st1{clip-path:url(#SVGID_00000005983024144573716740000016784724532432265650_);fill:url(#SVGID_00000142878313634934549560000010673053826580347800_);}
	
		.st2{clip-path:url(#SVGID_00000007411450908773892550000011950398068649316539_);fill:url(#SVGID_00000119803813235496044640000012929267509213497495_);}
	
		.st3{clip-path:url(#SVGID_00000117643940319535349970000014165591920462043831_);fill:url(#SVGID_00000054236731410441289960000017090424301116576415_);}
	
		.st4{clip-path:url(#SVGID_00000142886590596858563350000007777114443962211252_);fill:url(#SVGID_00000173841416790630443860000011599866442561749660_);}
</style><style type="text/css" id="style1945-65">
	
		.st0{clip-path:url(#SVGID_00000007390057207292410680000014594833281145322675_);fill:url(#SVGID_00000157298640823903213790000010888111401409626045_);}
	
		.st1{clip-path:url(#SVGID_00000005983024144573716740000016784724532432265650_);fill:url(#SVGID_00000142878313634934549560000010673053826580347800_);}
	
		.st2{clip-path:url(#SVGID_00000007411450908773892550000011950398068649316539_);fill:url(#SVGID_00000119803813235496044640000012929267509213497495_);}
	
		.st3{clip-path:url(#SVGID_00000117643940319535349970000014165591920462043831_);fill:url(#SVGID_00000054236731410441289960000017090424301116576415_);}
	
		.st4{clip-path:url(#SVGID_00000142886590596858563350000007777114443962211252_);fill:url(#SVGID_00000173841416790630443860000011599866442561749660_);}
</style><style type="text/css" id="style1945-6-0">
	
		.st0{clip-path:url(#SVGID_00000007390057207292410680000014594833281145322675_);fill:url(#SVGID_00000157298640823903213790000010888111401409626045_);}
	
		.st1{clip-path:url(#SVGID_00000005983024144573716740000016784724532432265650_);fill:url(#SVGID_00000142878313634934549560000010673053826580347800_);}
	
		.st2{clip-path:url(#SVGID_00000007411450908773892550000011950398068649316539_);fill:url(#SVGID_00000119803813235496044640000012929267509213497495_);}
	
		.st3{clip-path:url(#SVGID_00000117643940319535349970000014165591920462043831_);fill:url(#SVGID_00000054236731410441289960000017090424301116576415_);}
	
		.st4{clip-path:url(#SVGID_00000142886590596858563350000007777114443962211252_);fill:url(#SVGID_00000173841416790630443860000011599866442561749660_);}
</style><style type="text/css" id="style1945-62-0">
	
		.st0{clip-path:url(#SVGID_00000007390057207292410680000014594833281145322675_);fill:url(#SVGID_00000157298640823903213790000010888111401409626045_);}
	
		.st1{clip-path:url(#SVGID_00000005983024144573716740000016784724532432265650_);fill:url(#SVGID_00000142878313634934549560000010673053826580347800_);}
	
		.st2{clip-path:url(#SVGID_00000007411450908773892550000011950398068649316539_);fill:url(#SVGID_00000119803813235496044640000012929267509213497495_);}
	
		.st3{clip-path:url(#SVGID_00000117643940319535349970000014165591920462043831_);fill:url(#SVGID_00000054236731410441289960000017090424301116576415_);}
	
		.st4{clip-path:url(#SVGID_00000142886590596858563350000007777114443962211252_);fill:url(#SVGID_00000173841416790630443860000011599866442561749660_);}
</style><style type="text/css" id="style1945-1">
	
		.st0{clip-path:url(#SVGID_00000007390057207292410680000014594833281145322675_);fill:url(#SVGID_00000157298640823903213790000010888111401409626045_);}
	
		.st1{clip-path:url(#SVGID_00000005983024144573716740000016784724532432265650_);fill:url(#SVGID_00000142878313634934549560000010673053826580347800_);}
	
		.st2{clip-path:url(#SVGID_00000007411450908773892550000011950398068649316539_);fill:url(#SVGID_00000119803813235496044640000012929267509213497495_);}
	
		.st3{clip-path:url(#SVGID_00000117643940319535349970000014165591920462043831_);fill:url(#SVGID_00000054236731410441289960000017090424301116576415_);}
	
		.st4{clip-path:url(#SVGID_00000142886590596858563350000007777114443962211252_);fill:url(#SVGID_00000173841416790630443860000011599866442561749660_);}
</style><style type="text/css" id="style1945-6-3">
	
		.st0{clip-path:url(#SVGID_00000007390057207292410680000014594833281145322675_);fill:url(#SVGID_00000157298640823903213790000010888111401409626045_);}
	
		.st1{clip-path:url(#SVGID_00000005983024144573716740000016784724532432265650_);fill:url(#SVGID_00000142878313634934549560000010673053826580347800_);}
	
		.st2{clip-path:url(#SVGID_00000007411450908773892550000011950398068649316539_);fill:url(#SVGID_00000119803813235496044640000012929267509213497495_);}
	
		.st3{clip-path:url(#SVGID_00000117643940319535349970000014165591920462043831_);fill:url(#SVGID_00000054236731410441289960000017090424301116576415_);}
	
		.st4{clip-path:url(#SVGID_00000142886590596858563350000007777114443962211252_);fill:url(#SVGID_00000173841416790630443860000011599866442561749660_);}
</style><style type="text/css" id="style1945-62-6">
	
		.st0{clip-path:url(#SVGID_00000007390057207292410680000014594833281145322675_);fill:url(#SVGID_00000157298640823903213790000010888111401409626045_);}
	
		.st1{clip-path:url(#SVGID_00000005983024144573716740000016784724532432265650_);fill:url(#SVGID_00000142878313634934549560000010673053826580347800_);}
	
		.st2{clip-path:url(#SVGID_00000007411450908773892550000011950398068649316539_);fill:url(#SVGID_00000119803813235496044640000012929267509213497495_);}
	
		.st3{clip-path:url(#SVGID_00000117643940319535349970000014165591920462043831_);fill:url(#SVGID_00000054236731410441289960000017090424301116576415_);}
	
		.st4{clip-path:url(#SVGID_00000142886590596858563350000007777114443962211252_);fill:url(#SVGID_00000173841416790630443860000011599866442561749660_);}
</style></svg>